<?xml version="1.0" encoding="utf-8"?>
<!-- Generator: Adobe Illustrator 26.2.1, SVG Export Plug-In . SVG Version: 6.00 Build 0)  -->
<svg version="1.1" xmlns="http://www.w3.org/2000/svg" xmlns:xlink="http://www.w3.org/1999/xlink" x="0px" y="0px"
	 viewBox="0 0 501 500" style="enable-background:new 0 0 501 500;" xml:space="preserve">
<style type="text/css">
	.st0{fill:#0D4479;}
	.st1{fill:none;}
</style>
<g id="Vrstva_1">
</g>
<g id="Vrstva_4">
	<path class="st0" d="M232.2,362.8c4-10.9,3.1-21.5-2.7-31.6c-4.3-7.5-10.2-13.5-17-18.6c-2.8-2.1-5.2-4.6-7.3-7.5
		c-2.4-3.3-4.6-6.6-7-10c0,0,0,0-0.1-0.1c-4.6-8-8.2-12-11.5-13.4c-6.4-2.7-6.8,3.6-6.8,4.3c-0.1,1,0.4,4.1,5.7,13.3
		c0.6,1.2,0,0,2,3.8c1,1.8,1.9,3.6,3,5.4c2,3.2,3.6,6.6,4.5,10.4c0.1,0.6,0.3,1.3,0,1.8c-0.9-1.6-1.6-3.1-2.5-4.6
		c-1.9-3.3-4.1-6.5-7.2-9c0,0-1.6-1.2-1.7-1.3l0,0c-2-1.3-1.5-1.2-4.5-2.1l0,0c-5.5-2.2-10.8-4.7-15.9-7.7c-4.6-2.8-9-5.7-12.1-10.2
		l-2.1-3.5c0.2,0.4,0.2,0.4,0.3,0.6c-2.1-4.2-4.6-8.1-7.3-11.9c-1.6-2.4-3.4-4.6-5.7-6.4c-1.3-1-2.6-1.8-4.2-2
		c-3.2-0.4-5.2,1.8-4.3,4.9c0.3,1.2,1,2.4,1.6,3.4c3.9,6.7,8.1,13.4,11.6,20.5c0.1,0.3,0.1,0.6,0.6,1.7c0.4,1,0.8,1.3,1.2,1.7
		c1.9,3.1,4.6,5.4,7.2,7.7c5.1,4.7,10.4,9.4,14.5,15.1l0,0c-0.1,0.3,3.9,6.2,3.8,6.5c3.1,5.9,6.6,11.6,11.7,16.1
		c3.5,3.1,7.1,6.1,10.3,9.6c0.3,0.4,0.2,0.3,0.9,1.1c0.4,0.6,0.3,0.4,0.9,1c0.1,0.1,0.2,0.2,0.3,0.3c1.9,2.8,3.9,5.7,5.4,8.8
		c1.3,2.9,2.1,5.9,2.1,9c-2.3,10.6-10.7,13.4-7.9,14.1c0.6-0.1,16.3,4.9,16.9,5c3,0.4,12,1.4,12.3,1.6c1.1,1.1,5.1,3.5,6.5,2.4
		c0-6.8,0.9-10.2,2.5-18.4c0-1.2,0.2-1,0.1-3.5"/>
	<path class="st0" d="M174.7,299.5c-6.8-3.3-13.4-6.9-19.3-11.6c-1.2-1-2-2.2-2.9-3.5c-3.1-4.7-6.2-9.4-9.3-14.1c-2-3-2-6.5-2.1-10
		c-0.1-1.9,2.3-3.3,4.2-2.9c1.5,0.3,2.7,1.3,3.6,2.4c1.6,1.7,2.8,3.6,3.5,5.8c2.4,7.3,6.9,13.3,11.4,19.4c3.6,4.9,7.3,9.8,11.2,14.4
		c0.1,0.1,0.5,0.3,0.5,0.3C174.9,300.2,174.7,299.5,174.7,299.5z"/>
	<path class="st0" d="M182.5,302.7c-2.7-1.3-4.9-3-7-5.1c-5.5-5.7-10.2-11.8-14.4-18.3c-0.8-1.3-1.2-2.5-1.1-4.1
		c0.1-4.1-0.5-8-1.7-11.9c-0.8-2.4,0.3-3.6,2.9-3.6c2.4,0,5.4,2.4,6.2,5c1.6,5.1,3.1,10.5,4.1,15.9c0.9,4.5,2.9,8.4,5.2,12.2
		c2,3.2,4.4,6.2,6.5,9.3c0.6,0.1,2.7,2.2,2.4,2.2C185.5,304.3,183.1,303.3,182.5,302.7z"/>
	<path class="st0" d="M149.2,284.8c0.4,0,0.6,0.2,0.6,0.6"/>
	<path class="st0" d="M270.7,363.3c-4-10.9-3.1-21.5,2.7-31.6c4.3-7.5,10.2-13.5,17-18.6c2.8-2.1,5.2-4.6,7.3-7.5
		c2.4-3.3,4.7-6.6,7-10c0,0,1-1.5,1.3-2c2.6-4.6,6.3-8.6,7.4-9.5c7.1-5.6,9.1,0,9.5,1.3c0.9,2.7-4.2,12-7.6,18.2
		c-1,1.8-1.9,3.6-3,5.4c-2,3.2-3.6,6.6-4.5,10.4c-0.1,0.6-0.3,1.3,0,1.8c0.9-1.6,1.6-3.1,2.5-4.6c1.9-3.3,4.1-6.5,7.2-9
		c0.4-0.4,0.6-0.6,0.9-0.9c0.3-0.3,0.5-0.3,0.9-0.4c0.4-0.3,1.2-0.9,1.5-1.1c1.7-1,2.4-1,2.9-1.1c5.5-2.2,10.8-4.7,15.9-7.7
		c4.6-2.8,9-5.7,12.1-10.2c0,0-0.5,1,0,0c0.8-1.6,1.7-2.8,1.8-3c2.1-4.2,4.6-8.1,7.3-11.9c1.6-2.4,3.4-4.6,5.7-6.4
		c1.3-1,2.6-1.8,4.2-2c3.2-0.4,5.2,1.8,4.3,4.9c-0.3,1.2-1,2.4-1.6,3.4c-3.9,6.8-8.1,13.4-11.6,20.5c-0.1,0.3-0.1,0.8-0.8,1.8
		c-0.1,0.2,0,0-0.5,0.9c0,0,0,0-0.6,0.9c-1.9,3.1-4.6,5.4-7.2,7.7c-5.1,4.7-10.4,9.4-14.5,15.1c-0.5,0.9-0.5,0.9-0.5,0.9
		c-0.6,1.2-0.6,1.2-1.4,2.5c-1,1.5-1.6,2.7-1.8,3.1c-3.1,6-6.6,11.6-11.8,16.2c-3.5,3.1-7.1,6.1-10.3,9.6c-1.6,2-1.1,1.3-1.9,2.5
		c-1.9,2.8-3.9,5.7-5.4,8.8c-1.3,2.9-2.1,5.9-2.1,9c2.3,10.6,10,13,7.2,13.7c-0.6-0.1-24,7.9-24.8,8c-3,0.4-8.9,2.6-10.3,1.5
		c0-6.8-0.9-10.2-2.5-18.4c0-1.2-0.2-1-0.1-3.5"/>
	<path class="st0" d="M328.3,300.1c6.7-3.3,13.4-6.9,19.3-11.6c1.2-1,2-2.2,2.9-3.5c3.1-4.7,6.2-9.4,9.3-14.1c2-3,2-6.5,2.1-10
		c0.1-1.9-2.3-3.3-4.2-2.9c-1.5,0.3-2.7,1.3-3.6,2.4c-1.6,1.7-2.8,3.6-3.5,5.8c-2.4,7.3-6.9,13.3-11.4,19.4
		c-3.6,4.9-7.3,9.8-11.3,14.4C328.1,299.8,328.2,299.9,328.3,300.1z"/>
	<path class="st0" d="M320.4,303.2c2.7-1.3,4.9-3,7-5.1c5.5-5.7,10.2-11.8,14.4-18.3c0.8-1.3,1.2-2.5,1.1-4.1
		c-0.1-4.1,0.5-8,1.7-11.9c0.8-2.4-0.3-3.6-2.9-3.6c-2.4,0-5.4,2.4-6.2,5c-1.6,5.1-3.1,10.5-4.1,15.9c-0.9,4.5-2.9,8.4-5.2,12.2
		c-2,3.2-4.4,6.2-6.5,9.3c-0.4,0-2.5,2.1-2.4,2.2S320.2,303.6,320.4,303.2z"/>
	<path class="st0" d="M319,306.4c0.5,0.1,1,0.2,1.5,0.3c2.7,0.4,3,0.2,3-2.5C321.9,304.7,320.3,305.2,319,306.4z"/>
	<path class="st0" d="M327.5,300.2c0.3,0.2,0.6,0.2,0.9-0.1c-0.1-0.1-0.2-0.2-0.2-0.2C327.8,299.9,327.6,300.1,327.5,300.2
		L327.5,300.2z"/>
	<path class="st0" d="M327.5,300.2L327.5,300.2L327.5,300.2L327.5,300.2z"/>
	<g>
		<path class="st0" d="M192.8,259.7c1,3.2,2.3,6.2,3.8,9.1l53.9,30.4c0-2.4,0-4.7,0-7.1L192.8,259.7z"/>
		<path class="st0" d="M200.1,274.8c3.2,4.8,7.2,9.1,12,13.1c1.2,1,2.2,1.8,3.4,2.7l10.7,6.1c5.6,2.4,11.5,4,17.7,4.6
			c1.2,0.1,2.5,0.2,3.6,0.3L200.1,274.8z"/>
		<path class="st0" d="M250.5,244.2c0-0.6,0-1.3,0-1.9c0-0.3,0-0.8,0-1.1c-0.2-0.1-0.3-0.2-0.5-0.3c-17-9.9-34.1-19.7-51.1-29.6
			c-0.6-0.4-1-0.3-1.3,0.3c-0.4,0.8-0.8,1.4-1.1,2.1L250.5,244.2z"/>
		<path class="st0" d="M190,236.2c-0.2,2.3-0.2,4.6-0.1,7l60.5,34.1c0-2.4,0-4.7,0-7.1L190,236.2z"/>
		<path class="st0" d="M195,216.9c-0.9,1.9-1.6,3.9-2.2,5.8l57.8,32.6c0-2.4,0-4.7,0-7.1L195,216.9z"/>
		<path class="st0" d="M191.7,226.1c-0.5,2-1,4.2-1.3,6.3l60,33.9c0-2.4,0-4.7,0-7.1L191.7,226.1z"/>
		<path class="st0" d="M190.2,247.2c0.1,1,0.2,1.8,0.3,2.8c0.2,1.7,0.5,3.3,1,5l58.9,33.2c0-2.4,0-4.7,0-7.1L190.2,247.2z"/>
	</g>
	<path class="st0" d="M316.2,235.8c0,3.2,0,6.4,0,9.6c-0.3,0.1-0.2,0.4-0.2,0.8c-0.3,3.4-0.9,7-1.7,10.3
		c-6.6,26.1-28,45.1-54.6,48.8c-1.3,0.2-2.7,0.1-4,0.5c-3,0-6,0-9.1,0c-0.1-0.2-0.3-0.2-0.5-0.2c-3.4-0.3-6.9-0.9-10.2-1.6
		c-25.9-6.1-45.9-28.4-49.2-54.6c-0.2-1.4-0.1-2.9-0.5-4.2c0-3,0-5.9,0-8.9c0.3-0.2,0.2-0.4,0.2-0.8c0.6-7.6,2.4-15.1,5.8-22
		c10.4-21.2,27.2-33.6,50.6-37.3c1.2-0.2,2.4,0,3.5-0.5c3.2,0,6.4,0,9.6,0c0.2,0.3,0.5,0.2,0.9,0.2c4.2,0.4,8.4,1.2,12.4,2.4
		c24.8,7.1,43.2,28.4,46.5,54.1C315.8,233.4,315.7,234.7,316.2,235.8z M251.2,301.1c0.2,0.2,0.5,0.1,0.8,0.1c4.4,0,8.7-0.5,13-1.6
		c25.6-6.1,44.1-27.5,46.5-53.6c1.1-12.3-1.4-23.8-7.3-34.6c-0.4-0.9-0.9-0.8-1.6-0.4c-15.9,9.1-31.7,18.3-47.5,27.4
		c-1.3,0.8-2.6,1.5-3.9,2.4c-0.2-0.1-0.3-0.2-0.5-0.3c-17-9.9-34.1-19.7-51.1-29.6c-0.6-0.4-1-0.3-1.3,0.3c-6.5,12-9,24.9-7,38.4
		c2.4,15.3,9.5,28,21.4,37.8c9.2,7.6,19.9,12,31.8,13.4C246.8,301.1,249.1,301.3,251.2,301.1z"/>
	<line class="st1" x1="251.2" y1="240.7" x2="251.2" y2="301"/>
	<path class="st0" d="M278.3,148.2c0.2-3,0.6-5.6,1.1-9.3l0.8-4.6c0.4-3.8,1-6.4,1.5-9.3c-0.6,0-1.5-0.1-2.6-0.2
		c-1.1-0.2-1.9-0.5-2.6-0.6c-0.2,3-0.4,5.6-1.1,9.3l-0.8,4.7c-0.4,3.6-1,6.3-1.5,9.2c0.8,0,1.5,0.1,2.6,0.2
		C276.8,147.7,277.7,147.9,278.3,148.2z"/>
	<path class="st0" d="M336,169.3c6.3,3.6,13.5,1.7,16.8-3.9c3.9-6.9,1.2-13-4.9-16.4c-6.6-3.9-13.7-1.8-16.8,3.8
		C327,159.9,330,165.9,336,169.3z M335.5,155.8c2.8-4.9,7.4-7.6,11.4-5.2c3.6,2,4.5,6.6,1.5,11.5c-3.5,6.2-8.1,7.4-11.6,5.4
		C333.5,165.6,332,161.9,335.5,155.8z"/>
	<path class="st0" d="M422.8,442.2v-0.1l-20.7-55.8c11-8.6,18.5-18.6,22.3-24.3l1.9-2.9l-3.4-0.5c-0.5,0-7.2-1-17.6,0
		c12.2-13.3,19.2-28.1,20.1-43.3l0.4-4.9l-4,3c0,0-3.8,2.8-11.4,5.4c13.1-19.5,18.1-39.6,15.5-61.3l-0.8-5.6l-3.3,4.6
		c-0.1,0.1-4.1,5.6-10.3,12.6c5.5-15.5,12.3-47.1-9-70l-1.5-1.5l-1.6,1.4c-0.1,0.1-2.9,2.8-6.4,8.8c-2.8-4.7-6.1-8.5-8.2-11
		c-0.6-0.7-1.2-1.4-1.5-1.8c-0.8-0.9-1.5-1.9-2.2-2.8c-2.6-2.9-4.8-5.6-5.6-7.9l-1.4-4.1l-2.6,3.3c-0.2,0.2-3.6,4.9-5.4,17.1
		c-5-5.8-10.6-11.2-16.8-16.2l22.5-32.4l-1.8-1.3c-29.4-21-65-33.5-102.9-36.5c0.9-8.5,2.1-11.8,2.7-13c10.4-0.2,17.5-0.6,20.9-0.9
		c0.1,3.2,0.4,6,0.4,6.2l0.1,2h11.2l0.2-2c0-0.1,0.1-2,0.4-4.6c0.9,0.5,1.9,0.8,2.9,0.8c4,0,7.1-3.6,7.1-8.4c0-4.6-3.2-8.2-7.1-8.2
		c-1,0-2,0.2-2.9,0.7c-0.1-2.6-0.4-4.4-0.4-4.6l-0.2-2h-11.2l-0.1,2c0,0.1-0.2,3-0.4,6.1c-3.8-0.2-12.4-0.8-24.8-1
		c-0.6-1.5-1.9-6.9-1.9-23.1V25.4c1.4-0.1,2.2-0.1,2.4-0.1l2-0.1v-11l-2-0.1c-0.2,0-4.2-0.4-8.9-0.8c0.6-0.9,0.9-2,0.9-3.2
		c0-4.1-3.8-7.5-8.5-7.5s-8.5,3.4-8.5,7.5c0,1.2,0.2,2.3,0.9,3.2c-4.7,0.2-8.6,0.6-8.9,0.8l-2,0.1v11l2,0.1c0.1,0,1,0,2.4,0.1v38.8
		c0,16.2-1.3,21.5-1.9,23.1c-12.3,0.2-20.9,0.8-24.8,1c-0.1-3-0.4-6-0.4-6.1l-0.1-2h-11.2l-0.1,2c0,0.1-0.1,2-0.4,4.6
		c-0.9-0.5-1.9-0.8-2.9-0.8c-4,0-7.1,3.6-7.1,8.2c0,4.6,3.2,8.4,7.1,8.4c1,0,2-0.2,2.9-0.7c0.1,2.6,0.4,4.4,0.4,4.6l0.1,2h11.2
		l0.1-2c0-0.2,0.2-3,0.4-6.2c3.4,0.2,10.5,0.8,20.8,0.9c0.6,1.2,1.8,4.3,2.8,13c-38.1,3-73.7,15.9-103.1,37.1l-1.8,1.3l22.7,31.9
		c-6.1,4.9-11.6,10.3-16.5,16.1c-1.6-12-5.1-16.8-5.4-17.1l-2.6-3.3l-1.4,4.1c-0.7,2.3-3,5-5.6,7.9c-0.7,0.9-1.5,1.9-2.2,2.8
		c-0.4,0.5-0.9,1.2-1.5,1.8c-2.1,2.6-5.5,6.3-8.2,11c-3.4-6-6.3-8.6-6.3-8.8l-1.6-1.4l-1.5,1.5c-21.3,22.8-14.4,54.3-9,70
		c-6.2-7.1-10.2-12.5-10.3-12.6l-3.4-4.6l-0.6,5.6c-2.6,21.6,2.6,41.8,15.5,61.3c-7.6-2.6-11.2-5.4-11.4-5.4l-4-3l0.2,4.9
		c1,15.1,7.9,30,20.2,43.3c-10.4-1-17.1-0.1-17.6,0l-3.5,0.5l2,2.9c3.8,5.7,11.3,15.8,22.3,24.3l-20.2,56H60.3v12.2h7.2
		c13.2,8.9,39.4,23.1,72,23.1c32.5,0,58.8-14.4,72-23.1h7.4v-12.2h-17.8l-4.2-11.6c12.8,3.3,25.9,5.4,39.4,6.2l1.4,41.6l13,19.3
		l13.1-19.3l1.4-41.6c13.4-0.8,26.7-2.9,39.4-6.2l-4.3,11.6h-17.8v12.2h7.4c13.2,8.9,39.4,23.1,72,23.1s58.9-14.4,72-23.1h7.4v-12.2
		H422.8z M306.6,90.6c1.4,0,2.7,1.8,2.7,3.8c0,2.1-1.3,3.8-2.7,3.8s-2.7-1.8-2.7-3.8C304,92.3,305.2,90.6,306.6,90.6z M295.9,84.7h3
		c0.2,2.2,0.5,6.3,0.5,9.6c0,3.4-0.2,7.4-0.5,9.8h-3c-0.2-2.7-0.5-7.2-0.5-9.8C295.3,92,295.7,87.3,295.9,84.7z M194.8,98.2
		c-1.4,0-2.7-1.8-2.7-3.8c0-2,1.2-3.8,2.7-3.8c1.4,0,2.7,1.8,2.7,3.8C197.3,96.4,196.2,98.2,194.8,98.2z M205.5,104.1h-3.2
		c-0.1-2.2-0.4-6.3-0.4-9.8s0.2-7.4,0.4-9.6h3.2c0.1,2.7,0.5,7.2,0.5,9.6C206,96.9,205.6,101.4,205.5,104.1z M418.1,442.1h-54.3
		v-20.9c8.6-0.9,18.8-4.3,29.8-12.8l3.8-3l-4.8-0.9c0,0-4.4-0.9-8.8-3c-0.9-0.5-2.1-1.4-3.8-2.2c-0.6-0.4-1.2-0.8-1.9-1.3
		c7.2-1.6,13.3-4.1,17.9-7.1c0.8-0.5,1.5-1,2.2-1.6L418.1,442.1z M344.8,426.2c3.2,0,5.7-2.2,6.2-5.4c2.4,0.4,5,0.6,7.9,0.6h0.5
		v20.7h-54.4l4.8-13c9.9-2.8,19.6-6.3,28.9-10.5c-0.1,0.4-0.1,0.8-0.1,1.2C338.5,423.3,341.3,426.2,344.8,426.2z M341.8,419.8
		c0-1.4,1.2-2.6,2.6-2.6s2.6,1.2,2.6,2.6s-1.2,2.6-2.6,2.6C343,422.3,341.8,421.2,341.8,419.8z M349.8,416c-0.5-0.8-1.3-1.3-2-1.6
		c2.9-1.5,5.8-3,8.6-4.7c0.2,0.1,0.6,0.2,0.9,0.2c2.9,0.2,6,0,8.9-0.4c2.9-0.5,5.7-1.4,8.5-2.7c-3-0.5-5.8-0.6-8.8-0.8l-3.2-0.2
		l1.2-0.8l-6.4-11c7.9,0.5,15.3,5.4,20.2,8.6c1.8,1.2,3,2,4.2,2.6c1.9,0.9,3.6,1.6,5.4,2.1C371.7,418,358.8,417.9,349.8,416z
		 M350.8,369.8c-2.6,0-4.7,1.4-5.6,3.5l-2.1-3.8c14.8-10.6,27.2-23.8,36.1-38.8c0.5,4.2,0.1,8.2-0.9,12c-3.4,12.2-13.2,22.7-21.8,30
		C355.3,371.1,353.2,369.8,350.8,369.8z M353.4,376.3c0,1.4-1.2,2.6-2.6,2.6c-1.4,0-2.6-1.2-2.6-2.6c0-1.4,1.2-2.6,2.6-2.6
		C352.2,373.9,353.4,374.9,353.4,376.3z M357.5,381.2c1.4,0,2.6,1.2,2.6,2.6c0,1.4-1.2,2.6-2.6,2.6s-2.6-1.2-2.6-2.6
		C354.9,382.3,356.1,381.2,357.5,381.2z M418.7,362.5c-4.9,6.8-13.3,16.6-25,24.3c-5,3.4-12.2,5.8-21,7.4c-2.8-1.5-6.1-2.9-9.6-3.8
		l3.2-1.6l11.4-6.2l11.6-6.3c-4.4,0.4-8.8,1.6-13,3.2c-4.2,1.5-8.2,3.4-12.2,5.6c-0.4,0.1-0.8,0.4-1.2,0.6c0-2.4-1.4-4.6-3.4-5.6
		c5.7-4,13.4-8.3,23.4-11.7C399.1,362.5,412.5,362.3,418.7,362.5z M420.7,319.3c-2.7,17.6-13.3,31.4-22.4,40.3
		c-5,0.9-10.8,2.2-16.8,4.4c-1.5,0.5-2.9,1-4.3,1.6c3.8-3.4,7.4-7,10.8-10.6c3.6-4.2,7.4-8.6,10-13.7c-4.2,3.8-8.4,7.5-12.4,11.1
		L373,363.4l-3,2.7c5.7-6.4,10.5-13.8,12.6-22c0.6-1.2,1.3-2.1,1.9-3c1.4-1.9,2.8-3.5,4.2-5c2.8-0.2,5-2.4,5.6-5.1
		c0.8-0.5,1.4-1,2.1-1.5h0.5c2.4,0,4.4-1.3,5.5-3.2c2.1-0.9,4.3-1.6,6.8-2.3C414.3,322.3,418,320.7,420.7,319.3z M386,329.4
		c0-1.4,1.2-2.6,2.6-2.6s2.6,1.2,2.6,2.6c0,1.4-1.2,2.6-2.6,2.6C387.2,331.9,386,330.8,386,329.4z M394.7,323c0-1.4,1.2-2.6,2.6-2.6
		c1.4,0,2.6,1.2,2.6,2.6s-1.2,2.6-2.6,2.6C395.8,325.7,394.7,324.6,394.7,323z M412,275.9c0.2,0,0.2-0.2,0.1-0.5
		c4.2-4.6,7.7-8.9,10.2-11.9c1,20.1-5,38.9-18.6,57.2c-0.4,0.1-0.6,0.2-1,0.4c-0.4-1.4-1.4-2.6-2.6-3.3c2.2-3.3,4.3-6.8,6.1-10.3
		c1.3-2.6,2.2-5,3.2-7.7c0.8-2.7,1.5-5.5,1.6-8.2c-2.1,5-4.9,9.8-7.8,14.1c-2.6,3.8-5,7.5-7.8,11c-2.8,0.6-4.9,3.2-4.9,6.1v0.1
		c-0.1,0.2-0.2,0.4-0.5,0.6c-0.6-0.2-1.3-0.4-2-0.4c-2.1,0-4.1,1-5.1,2.7c0-0.5-0.1-0.9-0.4-1.4c5.1-9.9,9-20.6,10.9-31.7
		c4.2-3.3,8.4-7,12-10.6h0.6C409.2,282.3,412,279.5,412,275.9z M404.6,275.1c0-1.4,1.2-2.6,2.6-2.6s2.6,1.2,2.6,2.6
		s-1.2,2.6-2.6,2.6C405.7,277.7,404.6,276.5,404.6,275.1z M401.3,203.9c18.9,22.2,10.5,52.8,5.6,66.1h-0.8c-3.5,0-6.3,2.8-6.3,6.3
		c0,1.5,0.6,2.9,1.5,4.1c-2.1,2.1-4.6,4.3-7,6.3c0.5-4.1,0.8-8.2,0.8-12.4v-2.1c1.9-2.7,3.4-5.6,4.7-8.6c1.8-4.4,2.8-9.1,3.4-13.8
		c0.6-4.7,0.8-9.3,0.1-14c-1.3,4.6-2.4,9-3.5,13.3c-1.3,4.4-2.6,8.6-4.2,12.8c-0.2,0.8-0.6,1.5-0.9,2.1c-0.4-4.2-1-8.4-1.9-12.5
		c4.9-8.2,7-16.4,6.4-26.6c-0.1-4.6-1.4-8.9-3.2-12.6C398.1,208.2,400,205.4,401.3,203.9z M373.8,189.6c1.2,1.8,2.7,3.5,4.2,5.4
		c0.8,0.9,1.4,1.8,2.1,2.8c0.4,0.5,1,1.2,1.6,1.9c4.3,5,12.4,14.6,12.8,25.6c0.2,7.5-0.9,13.8-3.6,19.9c-1.9-6.5-4.3-13-7.4-19.2
		c0.2-2.1,0.2-4.2,0-6.3c-0.2-2.1-0.8-4.2-1.5-6.2c-0.8-2-1.8-4.1-3.4-5.6c-0.1,2.1-0.1,4.2,0,6.3c0,1,0.1,2.1,0.2,3.2
		c-2.6-4.2-5.1-8.1-8.3-11.9C371.3,197.6,372.7,192.7,373.8,189.6z M366.2,152.8l-19.7,28.5c-21.7-16.7-49.5-27.8-80.1-30.6v-2.9
		c0-13,0.5-22.4,1-29.3C303.6,121.3,337.9,133.1,366.2,152.8z M250.7,7c2.1,0,4.1,1.4,4.1,2.9c0,1.6-1.9,2.9-4.1,2.9
		c-2.1,0-4.1-1.4-4.1-2.9C246.6,8.4,248.5,7,250.7,7z M236.6,18.3c3-0.2,9-0.8,14-0.8c4.9,0,11,0.4,14,0.8v2.8
		c-3.4,0.2-10.4,0.8-14,0.8c-3.6,0-10.6-0.5-14-0.8V18.3z M261.8,87.3h-22.2c0.9-3.5,1.5-10.3,1.5-23V25.8c3.3,0.1,7.1,0.4,9.6,0.4
		c2.6,0,6.3-0.2,9.6-0.4v38.4C260.3,77,261,83.7,261.8,87.3z M210.4,95.8v-3c4.6-0.2,16.4-1,33.4-1.2h13.6
		c17.1,0.1,28.9,0.9,33.4,1.2v3c-4.9,0.4-19.2,1.2-40.3,1.2C229.6,97.1,215.3,96.3,210.4,95.8z M265.7,101.3
		c-2.4,7.4-3.8,23.1-3.8,46.5v2.7c-2.9-0.2-6-0.4-9-0.4v-48.5C257.4,101.4,261.7,101.4,265.7,101.3z M235.8,101.3
		c3.8,0.1,8.1,0.1,12.6,0.1v48.5c-2.9,0-6,0.1-8.9,0.2v-2.6C239.5,124.7,238.1,108.7,235.8,101.3z M134.8,153.7
		c28.4-20,62.6-32.1,99.2-34.9c0.6,6.9,1,16.2,1,29.1v2.9c-30.8,2.8-58.6,14-80.6,31L134.8,153.7z M389.7,287.4
		c-5.4,41.2-35.4,76.4-77.1,94.2c-37.2,14-64.4,19.3-124.5-0.2c-45.9-19.7-77.5-60.2-77.5-107c-0.1-66,62.7-119.7,139.8-119.7
		c77.3,0,140.1,53.7,140.1,119.7c0,4-0.2,7.9-0.6,11.8 M150.2,369.8c-2.4,0-4.3,1.3-5.5,3.2c-8.8-7.4-18.5-17.9-21.8-30
		c-1-3.8-1.4-7.8-0.9-12c8.9,15,21.1,28.1,36.1,38.8l-2.1,3.8C154.8,371.2,152.7,369.8,150.2,369.8z M152.7,376.3
		c0,1.4-1.2,2.6-2.6,2.6s-2.6-1.2-2.6-2.6c0-1.4,1.2-2.6,2.6-2.6C151.6,373.9,152.7,374.9,152.7,376.3z M138.4,405.8l-3.2,0.2
		c-2.8,0.1-5.7,0.4-8.6,0.8c2.7,1.4,5.6,2.1,8.5,2.7c2.9,0.5,5.8,0.6,8.9,0.4c0.4,0,0.6-0.1,0.9-0.2c2.8,1.6,5.7,3.2,8.6,4.7
		c-0.8,0.4-1.5,1-2,1.6c-9.1,1.9-22.2,2-37.6-8.5c1.5-0.5,3.4-1.3,5.4-2.1c1.2-0.5,2.6-1.4,4.2-2.6c4.9-3.4,12.3-8.1,20.2-8.6
		l-6.4,11L138.4,405.8z M156.4,426.2c3.5,0,6.3-2.8,6.3-6.3c0-0.4,0-0.8-0.1-1.2c9.2,4.2,19,7.7,28.9,10.5l4.8,13h-54.4v-20.7h0.5
		c2.8,0,5.6-0.2,7.9-0.6C150.6,423.7,153.3,426.2,156.4,426.2z M154.2,419.8c0-1.4,1.2-2.6,2.6-2.6c1.4,0,2.6,1.2,2.6,2.6
		s-1.2,2.6-2.6,2.6C155.4,422.3,154.2,421.2,154.2,419.8z M141.2,383.7c0-1.4,1.2-2.6,2.6-2.6c1.4,0,2.6,1.2,2.6,2.6
		c0,1.4-1.2,2.6-2.6,2.6C142.2,386.2,141.2,385.1,141.2,383.7z M106.3,225.1c0.4-11,8.5-20.6,12.8-25.6c0.6-0.8,1.3-1.4,1.6-1.9
		c0.8-0.9,1.4-1.8,2.1-2.8c1.5-1.8,2.9-3.5,4.2-5.4c1.2,3,2.7,7.9,3.3,15.8c-3,3.8-5.7,7.8-8.2,11.9c0-1,0.1-2.1,0.2-3.2
		c0-2,0.1-4.1,0-6.3c-1.5,1.5-2.7,3.5-3.4,5.6c-0.7,2-1.3,4.1-1.5,6.2c-0.2,2-0.2,4.2,0,6.3c-3,6.2-5.5,12.5-7.4,19.2
		C107.3,238.9,106.1,232.6,106.3,225.1z M99.8,203.9c1.3,1.5,3.3,4.3,5.5,8.5c-1.8,3.8-3,8.1-3.2,12.6c-0.4,10.2,1.6,18.3,6.5,26.6
		c-0.9,4.1-1.5,8.3-2,12.5c-0.2-0.8-0.6-1.4-0.9-2.1c-1.6-4.2-2.9-8.4-4.2-12.8c-1.3-4.3-2.2-8.8-3.5-13.3c-0.6,4.7-0.5,9.3,0.1,14
		c0.6,4.7,1.8,9.2,3.5,13.8c1.3,3,2.8,6,4.7,8.6v2.1c0,4.2,0.2,8.4,0.7,12.4c-2.4-2-4.7-4.2-7-6.3c0.9-1.2,1.5-2.6,1.5-4.1
		c0-3.5-2.8-6.3-6.3-6.3h-0.7C89.3,256.8,81,226.1,99.8,203.9z M96.5,275.1c0,1.4-1.2,2.6-2.6,2.6s-2.6-1.2-2.6-2.6s1.2-2.6,2.6-2.6
		S96.5,273.7,96.5,275.1z M78.8,263.6c2.4,3,5.8,7.2,10,11.9v0.8c0,3.4,2.8,6.3,6.3,6.3h0.6c3.6,3.6,7.8,7.4,12,10.6
		c2,11.1,5.7,21.7,10.9,31.7c-0.1,0.5-0.2,0.9-0.4,1.4c-1.2-1.6-3-2.7-5-2.7c-0.8,0-1.4,0.1-2,0.4c-0.1-0.2-0.4-0.4-0.5-0.6v-0.1
		c0-2.9-2.1-5.5-4.9-6.1c-2.8-3.5-5.4-7.2-7.8-11c-2.9-4.6-5.7-9.1-7.8-14.1c0.1,2.8,0.9,5.6,1.6,8.3c0.9,2.7,2,5.1,3.2,7.7
		c1.8,3.5,3.8,7.1,6.1,10.3c-1.2,0.8-2.1,1.9-2.6,3.3c-0.4-0.1-0.8-0.2-1-0.4C83.8,302.5,77.7,283.7,78.8,263.6z M115.1,329.4
		c0,1.4-1.2,2.6-2.6,2.6s-2.6-1.2-2.6-2.6c0-1.4,1.2-2.6,2.6-2.6C114,326.8,115.1,328,115.1,329.4z M106.3,323
		c0,1.4-1.2,2.6-2.6,2.6s-2.6-1.2-2.6-2.6s1.2-2.6,2.6-2.6C105.4,320.6,106.3,321.8,106.3,323z M80.4,319.3c2.7,1.4,6.5,3,11.8,4.6
		c2.4,0.8,4.7,1.4,6.8,2.3c1,1.9,3,3.2,5.5,3.2h0.5c0.8,0.5,1.4,1,2.1,1.5c0.5,2.8,2.7,4.9,5.6,5.1c1.4,1.5,2.8,3.2,4.2,5
		c0.6,1,1.3,2,1.9,3c2.1,8.1,7.1,15.4,12.6,22c-1-0.9-2-1.8-3-2.7l-12.5-10.9c-4.2-3.6-8.4-7.4-12.5-11.1c2.8,4.9,6.3,9.3,10,13.7
		c3.4,3.6,7,7.2,10.6,10.6c-1.4-0.6-2.8-1.2-4.3-1.6c-6.1-2.1-11.7-3.5-16.8-4.4C93.7,350.6,83.1,336.8,80.4,319.3z M82.5,362.5
		c6.3-0.2,19.7,0,35.7,5.6c9.9,3.5,17.6,7.7,23.4,11.7c-2,1-3.4,3.2-3.4,5.6c-0.4-0.1-0.8-0.4-1-0.6c-4-2.1-7.9-4.1-12.2-5.6
		c-4.2-1.5-8.5-2.8-13.1-3.2l11.6,6.3l11.4,6.2l3.2,1.6c-3.4,0.9-6.8,2.2-9.5,3.8c-8.9-1.5-16-4.1-21.1-7.4
		C95.6,379.2,87.3,369.3,82.5,362.5z M102.6,389c0.7,0.6,1.5,1.2,2.2,1.6c4.6,3,10.6,5.5,17.9,7.1c-0.6,0.4-1.3,0.8-1.9,1.3
		c-1.5,1-2.8,1.9-3.6,2.2c-4.3,2.1-8.8,3-8.8,3l-4.8,0.9l3.8,3c11,8.5,21.1,11.9,29.8,12.7v20.9H83L102.6,389z M139.5,472.9
		c-27.1,0-49.8-10.4-63.8-18.6H203C189.3,462.5,166.6,472.9,139.5,472.9z M214.3,446.5v3.2H64.7v-3.2H214.3z M248.4,486.6l-6.3-9.8
		l-1.4-39.9c2.6,0.1,5.1,0.2,7.7,0.2V486.6z M259.1,476.8l-6.3,9.8v-49.3c2.6,0,5-0.1,7.7-0.2L259.1,476.8z M250.6,432.9
		c-38.8,0-75.9-10.2-107.4-29.2l18.5-31.4c24.5,16.5,55.4,26.3,88.8,26.3s64.4-9.9,88.8-26.3l18.3,31.4
		C326.4,422.7,289.3,432.9,250.6,432.9z M361.7,472.9c-27.1,0-49.8-10.4-63.6-18.6h127.3C411.5,462.5,388.8,472.9,361.7,472.9z
		 M436.5,449.7H286.8v-3.2h149.6v3.2H436.5z"/>
	<path class="st0" d="M177.6,151.3c1.6,3.3,2.7,5.7,3.8,8.5c0.5-0.4,1.4-1,2.2-1.4c0.9-0.4,1.7-0.7,2.4-1c-1.4-2.7-2.6-4.8-4.2-8.2
		L180,145c-1.6-3.3-2.7-5.7-3.8-8.5c-0.5,0.4-1.4,1-2.2,1.4c-0.9,0.4-1.7,0.9-2.4,1c1.4,2.7,2.6,4.8,4.2,8.2L177.6,151.3z"/>
	<path class="st0" d="M166.2,168.5c6.5-3.8,8.5-11.2,5-17.1c-4.2-7.1-11-7.6-17.4-4c-6.9,4.1-8.5,11.4-5.1,17.1
		C153.2,171.8,160,172.1,166.2,168.5z M153.8,162.1c-3-5-3-10.5,1-13c3.8-2.2,8.2-0.6,11.2,4.4c3.8,6.4,2.4,11.1-1.2,13.3
		C161.6,168.8,157.5,168.5,153.8,162.1z"/>
	<path class="st0" d="M117.3,334.6C117.3,334.6,117.3,334.7,117.3,334.6C117.3,334.7,117.2,334.7,117.3,334.6L117.3,334.6"/>
	<g>
		<path class="st0" d="M181.3,134.9l4.2-1.7l10.7,15.5c0.8,1.1,1.2,2,1.6,2.8h0.1c-0.1-0.9-0.2-1.8-0.1-3.2l0.9-18.8l4.3-1.1
			l-1.7,24.3l-5.7,1.6L181.3,134.9z"/>
		<path class="st0" d="M211.3,131.7l2.8,17l-3.9,0.6l-3.5-22.3l4.4-1.1l14.7,14.8l-2.7-16.5l3.9-0.6l3.5,22.2l-3.8,1.2L211.3,131.7z
			"/>
		<path class="st0" d="M316.2,140.7l-6.1,15l-3.1-1.4l8-19.6l3.8,1.4l3.8,19l5.9-14.6l3.1,1.4l-7.9,19.5l-3.3-0.9L316.2,140.7z"/>
		<path class="st0" d="M287.8,126.7l3.2,0.5l-1.4,17.1c-0.1,1.4-0.3,2.6-0.4,3l0,0c0.2-0.4,0.6-1.6,1.3-2.8l6.6-12.2l0.1-3.1
			l3.2,0.5l-1.2,17.1c-0.1,1.4-0.3,2.7-0.3,3.1l0,0c0.2-0.4,0.6-1.5,1.3-2.8l7.5-15.3l3.1,0.9l-10.8,20.1l-3.5-1l0.5-12.6
			c0-0.9,0.1-1.5,0.1-2h-0.1c-0.2,0.6-0.5,1.3-0.9,1.8l-6.2,11l-3.5-1L287.8,126.7z"/>
	</g>
	<g>
		<path class="st0" d="M168.8,390.9l-8.1,16.3l-3.3-1.7l10.6-21.3l4.1,1.6l2.5,21.1l7.8-15.8l3.3,1.6l-10.5,21.2l-3.6-1.1
			L168.8,390.9z"/>
		<path class="st0" d="M189.6,393.9l4.1,1l-2.4,10l11.4,2.7l2.4-10l4.1,1l-5.5,23.4l-4.1-1l2.5-10.4l-11.4-2.7l-2.5,10.4l-4.1-1
			L189.6,393.9z"/>
		<path class="st0" d="M233,403.7c0,0,4.4,0.3,7.4,0.5c6,0.5,9.1,3.8,8.7,8.4c-0.4,4.8-4.7,7.5-10,7c-1.3-0.1-2.5-0.4-3.4-0.8
			l-0.9,9l-4.1-0.4L233,403.7z M239.2,416.7c3,0.3,5.4-1.3,5.6-4.3c0.3-2.9-1.5-4.9-4.8-5.2c-1.1-0.1-2.3-0.1-3.1-0.2l-0.9,9.1
			C237.1,416.4,238.2,416.6,239.2,416.7z"/>
		<path class="st0" d="M270.8,427.2l-7.1-9.6c-1.3,0.1-2.5,0.1-3.4-0.1l0.8,10l-4.1,0.3l-1.8-23.9c0,0,4.1-0.4,7.3-0.6
			c6-0.4,9.8,2,10.1,6.4c0.2,3.5-2.1,5.8-4.8,7l6.9,8.7L270.8,427.2z M263.4,414.9c3.2-0.2,5.1-2.1,4.9-4.5
			c-0.2-2.8-2.4-4.5-5.7-4.3c-1,0.1-2.1,0.2-3.1,0.3l0.6,8.5C261.1,414.9,262.3,414.9,263.4,414.9z"/>
		<path class="st0" d="M284.5,399.9l4.2-0.8l12.8,22.2l-4.3,0.8l-2.9-5.2l-9.3,1.6l-1,5.9l-4.1,0.8L284.5,399.9z M292.9,414.1
			l-3.9-7.2c-1.2-2.2-1.6-3.1-1.9-3.9l0,0c0,0.8-0.1,1.7-0.5,4.3l-1.3,8.1L292.9,414.1z"/>
		<path class="st0" d="M298.3,397.2l4-1.4l3.4,9.6l10.9-3.9l-3.4-9.6l3.9-1.4l8,22.6l-3.9,1.4l-3.5-10.1l-10.9,3.9l3.5,10.1l-4,1.4
			L298.3,397.2z"/>
		<path class="st0" d="M325.9,385.1l3.8-1.9l18.8,17.4l-3.9,1.9l-4.3-4.2l-8.4,4.3l0.9,5.9l-3.6,1.9L325.9,385.1z M338.1,396.2
			l-5.8-5.8c-1.8-1.8-2.5-2.5-2.9-3.1l0,0c0.2,0.8,0.4,1.6,0.8,4.2l1.2,8.1L338.1,396.2z"/>
	</g>
</g>
</svg>
