<?xml version="1.0" encoding="UTF-8"?><svg xmlns="http://www.w3.org/2000/svg" viewBox="0 0 49.72 49.72"><defs><style>.f{stroke-width:1.25px;}.f,.g{fill:none;stroke:#000;stroke-miterlimit:10;}.g{stroke-width:1.75px;}</style></defs><g id="a"><rect class="f" x="7" y="19" width="4" height="19"/><rect class="f" x="39" y="19" width="4" height="19"/><path class="f" d="M13,17.67v-2.67H5v2.67c0,.74,.47,1.33,1.05,1.33h5.91c.58,0,1.05-.6,1.05-1.33Z"/><path class="f" d="M5,39.33v2.67H13v-2.67c0-.74-.47-1.33-1.05-1.33H6.05c-.58,0-1.05,.6-1.05,1.33Z"/><path class="f" d="M37,39.33v2.67h8v-2.67c0-.74-.47-1.33-1.05-1.33h-5.91c-.58,0-1.05,.6-1.05,1.33Z"/><path class="f" d="M45,17.67v-2.67h-8v2.67c0,.74,.47,1.33,1.05,1.33h5.91c.58,0,1.05-.6,1.05-1.33Z"/><g id="b"><path class="f" d="M3,48H47c.55,0,1-.34,1-.75v-4.5c0-.41-.45-.75-1-.75H3c-.55,0-1,.34-1,.75v4.5c0,.41,.45,.75,1,.75Z"/><path class="f" d="M2,11.23v-2.53c0-.33,.27-.62,.67-.73L24.67,2.1c.21-.06,.44-.06,.66,0l22,5.88c.4,.11,.67,.4,.67,.73v2.53c0,.42-.45,.77-1,.77H3c-.55,0-1-.34-1-.77Z"/><path class="f" d="M2,12.5v2c0,.28,.45,.5,1,.5H47c.55,0,1-.22,1-.5v-2c0-.28-.45-.5-1-.5H3c-.55,0-1,.22-1,.5Z"/><g id="c"/></g><g id="d"><path class="g" d="M31,24c0-7-12-7-12,0v10c0,6,12,6,12,0"/><line class="g" x1="26" y1="26.5" x2="16" y2="26.5"/><line class="g" x1="26" y1="31.5" x2="16" y2="31.5"/></g></g><g id="e"/></svg>