<?xml version="1.0" encoding="UTF-8"?><svg xmlns="http://www.w3.org/2000/svg" viewBox="0 0 49.72 49.72"><defs><style>.f{fill:none;stroke-width:2px;}.f,.g{stroke:#000;stroke-miterlimit:10;}.g{stroke-width:1.5px;}.g,.h{fill:#ffa9a9;}</style></defs><g id="a"/><g id="b"><g><path d="M35,15v5.45H9v-1.65l-.52-.29-1.5-.83,1.54-.94,.48-.29v-1.45h26m0-1H9c-.55,0-1,.45-1,1v.88l-2.01,1.23c-.44,.27-.43,.91,.02,1.17l1.99,1.1v1.06c0,.55,.45,1,1,1h26c.55,0,1-.45,1-1v-5.45c0-.55-.45-1-1-1h0Z"/><g><rect class="h" x="11" y="17" width="2" height="1" rx=".5" ry=".5"/><path d="M12.5,17h-1c-.27,0-.5,.23-.5,.5s.23,.5,.5,.5h1c.27,0,.5-.23,.5-.5s-.23-.5-.5-.5h0Z"/></g><g><rect class="h" x="15" y="17" width="6" height="1" rx=".5" ry=".5"/><path d="M20.5,17h-5c-.27,0-.5,.23-.5,.5s.23,.5,.5,.5h5c.27,0,.5-.23,.5-.5s-.23-.5-.5-.5h0Z"/></g><g><rect class="h" x="22" y="17" width="4" height="1" rx=".5" ry=".5"/><path d="M25.5,17h-3c-.27,0-.5,.23-.5,.5s.23,.5,.5,.5h3c.27,0,.5-.23,.5-.5s-.23-.5-.5-.5h0Z"/></g><g><rect class="h" x="27" y="17" width="6" height="1" rx=".5" ry=".5"/><path d="M32.5,17h-5c-.27,0-.5,.23-.5,.5s.23,.5,.5,.5h5c.28,0,.5-.23,.5-.5s-.22-.5-.5-.5h0Z"/></g><path d="M40,26v5.45H14v-1.65l-.52-.29-1.5-.83,1.54-.94,.48-.29v-1.45h26m0-1H14c-.55,0-1,.45-1,1v.88l-2.01,1.23c-.44,.27-.43,.91,.02,1.17l1.99,1.1v1.06c0,.55,.45,1,1,1h26c.55,0,1-.45,1-1v-5.45c0-.55-.45-1-1-1h0Z"/><g><rect class="h" x="16" y="28" width="2" height="1" rx=".5" ry=".5"/><path d="M17.5,28h-1c-.27,0-.5,.23-.5,.5s.23,.5,.5,.5h1c.27,0,.5-.23,.5-.5s-.23-.5-.5-.5h0Z"/></g><g><rect class="h" x="25" y="28" width="6" height="1" rx=".5" ry=".5"/><path d="M30.5,28h-5c-.27,0-.5,.23-.5,.5s.23,.5,.5,.5h5c.27,0,.5-.23,.5-.5s-.23-.5-.5-.5h0Z"/></g><g><rect class="h" x="20" y="28" width="4" height="1" rx=".5" ry=".5"/><path d="M23.5,28h-3c-.27,0-.5,.23-.5,.5s.23,.5,.5,.5h3c.27,0,.5-.23,.5-.5s-.23-.5-.5-.5h0Z"/></g><g><rect class="h" x="32" y="28" width="6" height="1" rx=".5" ry=".5"/><path d="M37.5,28h-5c-.28,0-.5,.23-.5,.5s.22,.5,.5,.5h5c.28,0,.5-.23,.5-.5s-.22-.5-.5-.5h0Z"/></g><path d="M43,37v5.45H17v-1.65l-.52-.29-1.5-.83,1.54-.94,.48-.29v-1.45h26m0-1H17c-.55,0-1,.45-1,1v.88l-2.01,1.23c-.44,.27-.43,.91,.02,1.17l1.99,1.1v1.06c0,.55,.45,1,1,1h26c.55,0,1-.45,1-1v-5.45c0-.55-.45-1-1-1h0Z"/><g><rect class="h" x="38" y="39" width="2" height="1" rx=".5" ry=".5"/><path d="M39.5,39h-1c-.28,0-.5,.22-.5,.5s.22,.5,.5,.5h1c.28,0,.5-.22,.5-.5s-.22-.5-.5-.5h0Z"/></g><g><rect class="h" x="26" y="39" width="6" height="1" rx=".5" ry=".5"/><path d="M31.5,39h-5c-.27,0-.5,.22-.5,.5s.23,.5,.5,.5h5c.27,0,.5-.22,.5-.5s-.23-.5-.5-.5h0Z"/></g><g><rect class="h" x="33" y="39" width="4" height="1" rx=".5" ry=".5"/><path d="M36.5,39h-3c-.28,0-.5,.22-.5,.5s.22,.5,.5,.5h3c.28,0,.5-.22,.5-.5s-.22-.5-.5-.5h0Z"/></g><g><rect class="h" x="19" y="39" width="6" height="1" rx=".5" ry=".5"/><path d="M24.5,39h-5c-.27,0-.5,.22-.5,.5s.23,.5,.5,.5h5c.27,0,.5-.22,.5-.5s-.23-.5-.5-.5h0Z"/></g><rect class="f" x="2" y="2" width="46" height="46" rx="3.69" ry="3.69"/><line class="g" x1="2" y1="10" x2="48" y2="10"/><circle cx="6" cy="6" r="1"/><circle cx="9" cy="6" r="1"/><circle cx="12" cy="6" r="1"/></g><g id="c"/><g id="d"/><g id="e"/></g></svg>