<?xml version="1.0" encoding="UTF-8"?><svg xmlns="http://www.w3.org/2000/svg" viewBox="0 0 49.72 49.72"><defs><style>.d{fill:none;stroke:#000;stroke-miterlimit:10;}</style></defs><g id="a"/><g id="b"><g id="c"><path d="M45.85,24.96c.12-18.2-22.48-27.02-35.01-14.16-7.58,7.52-7.46,20.74,.36,27.96,12.3,12.03,34.39,3.83,34.65-13.8h0Zm.3,0c.3,15.47-15.13,26.99-29.78,20.84C1.85,39.84-1.83,20.24,9.46,9.43c13.98-13.42,36.41-3.62,36.69,15.54h0Z"/><path d="M25.55,4.52c9.95,9.62,8.96,31.97,0,42,6.29-11.34,7.35-30.96,0-42h0Z"/><path d="M24.58,4.72c-7.34,11.03-6.29,30.65,0,42-8.96-10.02-9.96-32.37,0-42h0Z"/><path class="d" d="M4,24.96c21.55,9.39,42,0,42,0"/><path class="d" d="M6.76,14.46c11.05,6.63,25.42,6.63,36.47,0"/><path class="d" d="M6.76,35.46c12.16,3.32,24.32,3.32,36.47,0"/></g></g></svg>