<?xml version="1.0" encoding="UTF-8"?><svg xmlns="http://www.w3.org/2000/svg" viewBox="0 0 432.74 378.65"><defs><style>.c{fill:#7b1812;stroke:#7b1714;stroke-miterlimit:10;stroke-width:8px;}.d{fill:#010101;}</style></defs><g id="a"/><g id="b"><g><path class="d" d="M42.71,27.98h7.95v60.86h-7.95V27.98Zm5.02,53.33h10c1.79,0,3.17-.45,4.17-1.34,.99-.89,1.49-2.16,1.49-3.81v-7.95c0-1.53-.25-2.85-.75-3.93-.5-1.09-1.21-1.92-2.11-2.49-.91-.57-1.97-.86-3.2-.86h-9.59v-7.53h9.59c1.67,0,2.97-.57,3.89-1.72s1.38-2.76,1.38-4.86v-6.19c0-1.62-.46-2.87-1.38-3.77-.92-.89-2.19-1.34-3.81-1.34h-9.67v-7.53h9.54c2.79,0,5.18,.47,7.18,1.42,2,.95,3.51,2.34,4.54,4.17,1.03,1.83,1.55,4.03,1.55,6.59v6.45c0,1.9-.31,3.59-.92,5.07-.61,1.48-1.5,2.69-2.66,3.64-1.16,.95-2.55,1.59-4.17,1.92,1.79,.28,3.32,.91,4.6,1.88,1.28,.98,2.26,2.24,2.93,3.79s1,3.36,1,5.42v8.04c0,2.65-.5,4.9-1.51,6.76-1,1.86-2.48,3.27-4.42,4.25-1.94,.98-4.28,1.46-7.01,1.46h-10.67v-7.53Z"/><path class="c" d="M101.38,63.27v7.53h-21.43v-7.53h21.43Z"/><path class="d" d="M118.89,88.84h-7.95V27.98h7.95v60.86Z"/><path class="c" d="M149.89,63.27v7.53h-21.43v-7.53h21.43Z"/><path class="d" d="M165.86,87.82c-2.2-1.1-3.88-2.72-5.02-4.86-1.14-2.13-1.72-4.74-1.72-7.81v-3.01h7.95v2.72c0,2.2,.59,3.9,1.78,5.09s2.88,1.78,5.09,1.78,3.79-.59,4.94-1.76c1.14-1.17,1.72-2.87,1.72-5.11v-5.32c0-1.48-.36-2.73-1.09-3.77-.73-1.03-1.63-1.88-2.72-2.53-1.09-.66-2.6-1.42-4.52-2.28-.06-.03-.11-.05-.17-.06-.06-.01-.11-.04-.17-.06l-.59-.25c-2.57-1.17-4.67-2.32-6.3-3.43-1.63-1.12-3.02-2.67-4.17-4.65-1.14-1.98-1.72-4.49-1.72-7.54v-3.52c0-3.01,.56-5.57,1.7-7.68,1.13-2.11,2.8-3.71,5-4.79,2.2-1.09,4.88-1.63,8.04-1.63s5.67,.55,7.81,1.65c2.13,1.1,3.75,2.72,4.86,4.86,1.1,2.13,1.65,4.72,1.65,7.76v3.18h-7.95v-2.85c0-2.23-.54-3.93-1.63-5.11s-2.67-1.76-4.73-1.76c-2.21,0-3.89,.56-5.04,1.67-1.16,1.12-1.74,2.71-1.74,4.77v3.81c0,1.54,.36,2.83,1.09,3.87,.73,1.05,1.63,1.89,2.72,2.53,1.09,.64,2.58,1.38,4.48,2.22,.19,.08,.38,.17,.54,.25s.35,.17,.54,.25c.14,.06,.29,.12,.44,.19,.15,.07,.3,.13,.44,.19,2.43,1.09,4.38,2.13,5.86,3.12,1.48,.99,2.73,2.42,3.77,4.29,1.03,1.87,1.55,4.31,1.55,7.33v5.57c0,3.07-.56,5.67-1.7,7.81s-2.78,3.75-4.96,4.86c-2.18,1.1-4.83,1.65-7.95,1.65s-5.87-.55-8.08-1.65Z"/><path class="c" d="M219.21,63.27v7.53h-21.43v-7.53h21.43Z"/><path class="d" d="M224.67,27.98h29.55v7.53h-29.55v-7.53Zm10.8,4.98h7.95v55.88h-7.95V32.96Z"/><path class="c" d="M281.11,63.27v7.53h-21.43v-7.53h21.43Z"/><path class="d" d="M290.76,27.94h7.95v60.9h-7.95V27.94Zm3.73,27.63h11.22c1.42,0,2.64-.26,3.66-.8,1.02-.53,1.79-1.3,2.32-2.3,.53-1,.79-2.22,.79-3.64v-6.2c0-1.51-.27-2.8-.79-3.87-.53-1.07-1.3-1.89-2.32-2.45s-2.24-.84-3.66-.84h-11.22v-7.53h10.51c3.24,0,6.01,.54,8.33,1.61,2.32,1.08,4.08,2.65,5.29,4.73s1.82,4.57,1.82,7.47v7.12c0,2.99-.61,5.55-1.82,7.68s-2.98,3.76-5.29,4.88c-2.32,1.12-5.09,1.67-8.33,1.67h-10.51v-7.53Zm10.46,5.65l7.49-1.92,9.71,29.55h-8.71l-8.5-27.63Z"/><path class="c" d="M352.19,63.27v7.53h-21.43v-7.53h21.43Z"/><path class="d" d="M368.79,87.67c-2.26-1.2-3.98-2.94-5.17-5.23-1.19-2.29-1.78-5.04-1.78-8.25v-31.56c0-3.24,.59-6,1.78-8.29,1.19-2.29,2.91-4.02,5.17-5.21,2.26-1.19,4.98-1.78,8.16-1.78s5.9,.59,8.16,1.78c2.26,1.19,3.98,2.92,5.17,5.21,1.19,2.29,1.78,5.05,1.78,8.29v31.56c0,3.21-.59,5.96-1.78,8.25-1.19,2.29-2.91,4.03-5.17,5.23-2.26,1.2-4.98,1.8-8.16,1.8s-5.9-.6-8.16-1.8Zm12.03-6.8c1.07-.57,1.89-1.4,2.45-2.49,.56-1.09,.84-2.4,.84-3.93V42.38c0-1.53-.28-2.85-.84-3.93-.56-1.09-1.38-1.92-2.45-2.49-1.08-.57-2.37-.86-3.87-.86s-2.8,.29-3.87,.86c-1.07,.57-1.89,1.4-2.45,2.49-.56,1.09-.84,2.4-.84,3.93v32.06c0,1.54,.28,2.85,.84,3.93,.56,1.09,1.37,1.92,2.45,2.49s2.37,.86,3.87,.86,2.8-.29,3.87-.86Z"/></g></g></svg>