<?xml version="1.0" encoding="utf-8"?>
<!-- Generator: Adobe Illustrator 26.2.1, SVG Export Plug-In . SVG Version: 6.00 Build 0)  -->
<svg version="1.1" xmlns="http://www.w3.org/2000/svg" xmlns:xlink="http://www.w3.org/1999/xlink" x="0px" y="0px"
	 viewBox="0 0 500 500" style="enable-background:new 0 0 500 500;" xml:space="preserve">
<style type="text/css">
	.st0{fill:#7B170F;stroke:#7B1712;stroke-width:21.85;stroke-miterlimit:10;}
	.st1{display:none;}
	.st2{display:inline;fill:none;stroke:#000000;stroke-width:9;stroke-miterlimit:10;}
	.st3{fill:none;stroke:#010202;stroke-width:10.35;stroke-miterlimit:10;}
	.st4{display:inline;}
	.st5{display:none;fill:none;stroke:#000000;stroke-width:9;stroke-miterlimit:10;}
	.st6{fill:none;stroke:#000000;stroke-width:9;stroke-miterlimit:10;}
	.st7{fill:#010202;}
	.st8{fill:none;stroke:#010202;stroke-width:5.75;stroke-miterlimit:10;}
	.st9{fill:none;stroke:#010202;stroke-width:3.45;stroke-miterlimit:10;}
	.st10{fill:none;stroke:#010202;stroke-width:8.05;stroke-miterlimit:10;}
	.st11{clip-path:url(#SVGID_00000009571463018485407300000004231961241064083617_);}
	.st12{fill-rule:evenodd;clip-rule:evenodd;fill:#010202;}
	.st13{fill:none;}
	.st14{display:none;fill-rule:evenodd;clip-rule:evenodd;fill:#010202;}
	.st15{fill:none;stroke:#010202;stroke-width:0.1427;stroke-miterlimit:10;}
	.st16{fill:none;stroke:#010202;stroke-width:1.9457;stroke-miterlimit:10;}
	.st17{fill:none;stroke:#010202;stroke-width:1.5756;stroke-miterlimit:1;}
	.st18{fill:none;stroke:#010202;stroke-width:1.4597;stroke-miterlimit:10;}
	.st19{fill:none;stroke:#010202;stroke-width:0.3919;stroke-linecap:square;stroke-miterlimit:1;}
	.st20{fill:none;stroke:#010202;stroke-width:0.1427;stroke-linecap:round;stroke-miterlimit:10;}
	.st21{fill:none;stroke:#010202;stroke-width:0.9721;stroke-miterlimit:10;}
	.st22{fill-rule:evenodd;clip-rule:evenodd;fill:#7B170F;}
	.st23{fill:#7B170F;}
</style>
<g id="Vrstva_1">
	<g id="Pozadí">
		<polygon class="st0" points="20,451.2 250.6,48.8 480,451.2 		"/>
	</g>
	<g id="Lokalizace">
		<g id="Písmena_Do_středu_Znaku">
			<g id="Vodící_linky_pro_nové" class="st1">
			</g>
			<g id="P" class="st1">
				<path class="st2" d="M8210,289.7c47.8,0,47.8-60.9,0-60.9"/>
				<line class="st2" x1="8210.2" y1="228.4" x2="8210.2" y2="350.6"/>
			</g>
			<g id="C" class="st1">
				<path class="st2" d="M8194,228.8c-65.3,0-65.3,121.8,0,121.8"/>
			</g>
			<g id="Q" class="st1">
				<path class="st2" d="M8185.7,228.8c-55.3,0-55.3,121.8,0,121.8"/>
				<path class="st2" d="M8186,228.8c55.3,0,55.3,121.8,0,121.8"/>
				<line class="st2" x1="8202" y1="308" x2="8232.3" y2="350.6"/>
			</g>
			<g id="D" class="st1">
				<path class="st2" d="M8145.2,350.6c0,0,65.5,0,65.5-62.6c0-59.2-65.5-59.2-65.5-59.2v60.9V350.6L8145.2,350.6z"/>
			</g>
			<g id="T" class="st1">
				<line class="st2" x1="8178" y1="226.6" x2="8178" y2="350.6"/>
				<line class="st2" x1="8145.2" y1="228.8" x2="8210.8" y2="228.8"/>
			</g>
			<g id="W" class="st1">
				<polyline class="st2" points="8145.2,228.8 8178,350.6 8194,289.7 8210.8,350.6 8240.3,228.8 				"/>
			</g>
			<g id="W_alt" class="st1">
				<polyline class="st2" points="8145.2,228.8 8144.7,350.6 8194,289.7 8240.3,350.6 8240.3,228.8 				"/>
			</g>
			<g id="V" class="st1">
				<polyline class="st2" points="8145.2,228.8 8178,350.6 8210,228.8 				"/>
			</g>
			<g id="N" class="st1">
				<polyline class="st2" points="8145.2,350.6 8145.2,228.8 8177.9,350.6 8177.9,228.8 				"/>
			</g>
			<g id="J" class="st1">
				<polyline class="st2" points="8178,228.8 8242.3,228.8 8210,350.6 8177.4,289.3 				"/>
			</g>
		</g>
		<g id="Písmena_Státy_hotové">
			<g id="PRague">
				<path id="D_00000142168135123049966110000012312459298274827196_" class="st3" d="M195.6,394.4c0,0,75.3,0,75.3-72
					c0-68.1-75.3-68.1-75.3-68.1v70L195.6,394.4L195.6,394.4z"/>
				<line id="H_00000075859112478301134210000000928096449970740628_" class="st3" x1="305.5" y1="324.4" x2="195.6" y2="324.4"/>
				<line id="H" class="st3" x1="305.5" y1="251.8" x2="305.5" y2="394.4"/>
			</g>
			<g id="London" class="st1">
				<polyline id="W_00000111175924972073800180000018122629176938756499_" class="st2" points="8144.7,8170.8 8144.7,8292.6 
					8194,8214 8240.3,8292.6 8240.3,8170.8 				"/>
				<path class="st2" d="M8144.7,8292.6c0,0,65.5,0,65.5-62.6c0-59.2-65.5-59.2-65.5-59.2v60.9V8292.6L8144.7,8292.6z"/>
			</g>
			<g id="Berlin" class="st1">
				<line class="st2" x1="8177.4" y1="8168.6" x2="8177.4" y2="8292.6"/>
				<line class="st2" x1="8144.7" y1="8170.8" x2="8210.2" y2="8170.8"/>
				<path class="st2" d="M8210.2,8230c37.9,0.2,47.5-58.8,0-59.2"/>
				<line class="st2" x1="8210.2" y1="8170.4" x2="8210.2" y2="8294.4"/>
			</g>
			<g id="Buda" class="st1">
				<g id="DW_00000008828218231368880480000006287311221172790439_" class="st4">
					<path class="st5" d="M8144.7,8292.6c0,0,65.5,0,65.5-62.6c0-59.2-65.5-59.2-65.5-59.2v60.9V8292.6L8144.7,8292.6z"/>
					<polyline class="st6" points="8144.7,8292.6 8144.7,8170.8 8177.4,8292.6 8177.4,8170.8 8242.3,8170.8 8212.5,8292.6 
						8177.4,8231.3 					"/>
					<path class="st6" d="M8144.7,8292.6"/>
					<polyline class="st5" points="8144.7,8292.6 8240.3,8254 8178.4,8230 8240.3,8204 8144.7,8170.8 					"/>
				</g>
			</g>
		</g>
		<g id="Státy_a_města">
			<g id="Státy">
				<g>
					<g class="st1">
						<path class="st4" d="M8323.4,360.5h3.7v28.4h-3.7V360.5z M8325.9,373.1h8.7v3.5h-8.7V373.1z M8332.8,360.5h3.7v28.4h-3.7
							V360.5z"/>
						<path class="st4" d="M8343.1,388.4c-1-0.5-1.7-1.3-2.2-2.3s-0.7-2.2-0.7-3.6v-22h3.7v22.2c0,0.9,0.2,1.7,0.7,2.2
							s1.1,0.8,2,0.8c0.9,0,1.6-0.3,2.1-0.8s0.7-1.2,0.7-2.2v-22.2h3.7v22c0,1.4-0.3,2.6-0.8,3.6s-1.2,1.8-2.2,2.3s-2.1,0.8-3.5,0.8
							C8345.3,389.2,8344.1,388.9,8343.1,388.4z"/>
					</g>
				</g>
				<g>
					<g>
						<path class="st7" d="M405.9,437.8c-1.1-0.7-2-1.6-2.6-2.9c-0.6-1.3-0.9-2.8-0.9-4.5v-16.6c0-1.7,0.3-3.2,0.9-4.5
							c0.6-1.3,1.5-2.2,2.6-2.9s2.5-1,4.1-1s3,0.3,4.1,1c1.1,0.7,2,1.6,2.6,2.9c0.6,1.3,0.9,2.8,0.9,4.5v1.4h-4.5v-1.4
							c0-0.9-0.1-1.6-0.3-2.3c-0.2-0.6-0.6-1.2-1.1-1.4c-0.6-0.2-1-0.5-1.7-0.5s-1.3,0.1-1.7,0.5c-0.5,0.3-0.8,0.8-1.1,1.4
							c-0.2,0.6-0.3,1.4-0.3,2.3v16.6c0,0.9,0.1,1.6,0.3,2.3c0.2,0.6,0.7,1.1,1.1,1.4c0.5,0.3,1,0.5,1.7,0.5s1.3-0.1,1.7-0.5
							c0.5-0.3,0.9-0.8,1.1-1.4c0.2-0.6,0.3-1.4,0.3-2.3v-1.4h4.4v1.4c0,1.7-0.3,3.2-0.9,4.5s-1.5,2.2-2.6,2.9s-2.5,1-4.1,1
							C408.4,438.8,407.1,438.5,405.9,437.8z"/>
						<path class="st7" d="M434.5,409.4l-8.7,25h9v4h-13.6v-3.7l8.9-25h-8.5v-4h12.9v3.7H434.5z"/>
					</g>
				</g>
				<g id="UK">
					<g id="UK_00000075142926202263754160000006554529123767024813_" class="st1">
						<path class="st4" d="M8326.1,388.4c-1-0.5-1.7-1.3-2.2-2.3s-0.7-2.2-0.7-3.6v-22h3.7v22.2c0,0.9,0.2,1.7,0.7,2.2
							s1.1,0.8,2,0.8c0.9,0,1.6-0.3,2.1-0.8s0.7-1.2,0.7-2.2v-22.2h3.7v22c0,1.4-0.3,2.6-0.8,3.6s-1.2,1.8-2.2,2.3s-2.1,0.8-3.5,0.8
							C8328.3,389.2,8327.1,388.9,8326.1,388.4z"/>
						<path class="st4" d="M8339.8,360.5h3.7v28.4h-3.7V360.5z M8342.7,376.3l7.4-15.8h4.1l-11.8,23.1L8342.7,376.3z M8345.6,373.7
							l2.5-2.9l7,18.1h-4.2L8345.6,373.7z"/>
					</g>
				</g>
				<g>
					<g class="st1">
						<path class="st4" d="M8323.9,360.5h3.7v28.4h-3.7V360.5z M8326.3,385.4h5.2c0.7,0,1.2-0.2,1.6-0.6c0.4-0.4,0.5-1,0.5-1.7
							v-16.7c0-0.7-0.2-1.3-0.5-1.7c-0.4-0.4-0.9-0.6-1.6-0.6h-5.2v-3.5h5.1c1.3,0,2.3,0.2,3.2,0.7c0.9,0.5,1.6,1.1,2,2
							c0.5,0.9,0.7,2,0.7,3.2V383c0,1.2-0.2,2.3-0.7,3.2s-1.1,1.6-2,2c-0.9,0.5-2,0.7-3.2,0.7h-5v-3.5H8326.3z"/>
						<path class="st4" d="M8341.2,360.5h3.7v28.4h-3.7V360.5z M8343.1,360.5h10.3v3.5h-10.3V360.5z M8343.1,373h9.3v3.5h-9.3V373z
							 M8343.1,385.4h10.3v3.5h-10.3V385.4z"/>
					</g>
				</g>
			</g>
			<g id="Města">
				<g>
					<g>
						<path class="st7" d="M54.5,405.8h4.3v32.7h-4.3V405.8z M56.8,421.7H63c0.6,0,1-0.1,1.5-0.5c0.5-0.3,0.8-0.7,0.9-1.1
							s0.3-1.1,0.3-1.8v-4.9c0-0.7-0.1-1.4-0.3-1.8s-0.6-0.9-0.9-1.1s-0.9-0.5-1.5-0.5h-6.2v-4h6.1c1.5,0,2.9,0.3,3.9,0.9
							c1,0.6,2,1.4,2.5,2.5c0.6,1.1,0.8,2.4,0.8,4v5.2c0,1.5-0.3,2.9-0.9,3.9c-0.6,1.2-1.4,2-2.5,2.5c-1,0.6-2.4,0.9-3.9,0.9h-6
							V421.7z"/>
						<path class="st7" d="M74.6,405.8h4.3v32.7h-4.3V405.8z M76.6,420.5h6c0.8,0,1.4-0.1,2-0.5c0.6-0.2,0.9-0.7,1.3-1.3
							c0.2-0.6,0.5-1.1,0.5-2v-3.3c0-0.8-0.1-1.5-0.5-2.1c-0.2-0.6-0.7-1-1.3-1.3c-0.6-0.3-1.2-0.5-2-0.5h-6v-4h5.6
							c1.7,0,3.2,0.3,4.5,0.9c1.3,0.6,2.2,1.4,2.9,2.5c0.7,1.1,0.9,2.4,0.9,4v3.8c0,1.6-0.3,3-0.9,4.1c-0.6,1.1-1.6,2.1-2.9,2.6
							c-1.3,0.6-2.8,0.9-4.5,0.9h-5.6V420.5z M82.2,423.6l4-1l5.2,15.9h-4.7L82.2,423.6z"/>
						<path class="st7" d="M111.2,420.9v9.5c0,1.7-0.3,3.2-0.9,4.5c-0.6,1.3-1.5,2.2-2.6,2.9s-2.5,1-4.3,1s-3.1-0.3-4.4-0.9
							c-1.3-0.6-2.1-1.5-2.8-2.8c-0.7-1.3-0.9-2.6-0.9-4.3v-17c0-1.7,0.3-3.2,0.9-4.5s1.5-2.2,2.6-2.9s2.5-1,4.3-1
							c1.6,0,3,0.3,4.1,0.9c1.1,0.6,2.1,1.6,2.6,2.8c0.6,1.1,0.9,2.6,0.9,4.4v1.6h-4.5v-1.6c0-0.8-0.1-1.6-0.3-2.2
							c-0.2-0.6-0.6-1-1-1.4c-0.5-0.3-1-0.5-1.7-0.5c-0.8,0-1.4,0.1-2,0.5c-0.6,0.3-0.9,0.8-1.3,1.4c-0.3,0.6-0.5,1.4-0.5,2.3v17
							c0,0.8,0.1,1.5,0.5,2.1c0.3,0.6,0.7,1,1.3,1.3c0.6,0.2,1.3,0.5,2,0.5c0.8,0,1.4-0.1,2-0.5c0.6-0.3,0.9-0.8,1.3-1.4
							c0.3-0.6,0.5-1.4,0.5-2.3v-5.5h-3.7v-4h7.9V420.9z"/>
					</g>
				</g>
				<g>
					<g class="st1">
						<path class="st4" d="M8023.8,360.5h3.7v28.4h-3.7V360.5z M8026.2,385.4h4.7c0.8,0,1.5-0.2,1.9-0.6c0.5-0.4,0.7-1,0.7-1.8v-3.7
							c0-0.7-0.1-1.3-0.4-1.8c-0.3-0.5-0.6-0.9-1-1.2c-0.4-0.3-0.9-0.4-1.5-0.4h-4.5v-3.5h4.5c0.8,0,1.4-0.3,1.8-0.8
							s0.6-1.3,0.6-2.3v-2.9c0-0.8-0.2-1.3-0.6-1.8s-1-0.6-1.8-0.6h-4.5v-3.5h4.5c1.3,0,2.4,0.2,3.3,0.7c0.9,0.4,1.6,1.1,2.1,1.9
							c0.5,0.9,0.7,1.9,0.7,3.1v3c0,0.9-0.1,1.7-0.4,2.4c-0.3,0.7-0.7,1.3-1.2,1.7c-0.5,0.4-1.2,0.7-1.9,0.9
							c0.8,0.1,1.5,0.4,2.1,0.9c0.6,0.5,1.1,1,1.4,1.8c0.3,0.8,0.5,1.6,0.5,2.5v3.8c0,1.2-0.2,2.3-0.7,3.2s-1.2,1.5-2.1,2
							s-2,0.7-3.3,0.7h-5v-3.7H8026.2z"/>
						<path class="st4" d="M8040.6,360.5h3.7v28.4h-3.7V360.5z M8042.3,373.3h5.2c0.7,0,1.2-0.1,1.7-0.4c0.5-0.2,0.8-0.6,1.1-1.1
							c0.2-0.5,0.4-1,0.4-1.7v-2.9c0-0.7-0.1-1.3-0.4-1.8c-0.2-0.5-0.6-0.9-1.1-1.1c-0.5-0.3-1-0.4-1.7-0.4h-5.2v-3.5h4.9
							c1.5,0,2.8,0.3,3.9,0.8s1.9,1.2,2.5,2.2s0.8,2.1,0.8,3.5v3.3c0,1.4-0.3,2.6-0.8,3.6s-1.4,1.8-2.5,2.3s-2.4,0.8-3.9,0.8h-4.9
							V373.3z M8047.2,376l3.5-0.9l4.5,13.8h-4.1L8047.2,376z"/>
						<path class="st4" d="M8058.7,360.5h3.7v28.4h-3.7V360.5z M8060.6,385.4h9.8v3.5h-9.8C8060.6,388.9,8060.6,385.4,8060.6,385.4z
							"/>
					</g>
				</g>
				<g id="BUD">
					<g id="BUD_00000031172464747377871610000018029151717214566056_" class="st1">
						<path class="st4" d="M8023.8,360.5h3.7v28.4h-3.7V360.5z M8026.2,385.4h4.7c0.8,0,1.5-0.2,1.9-0.6c0.5-0.4,0.7-1,0.7-1.8v-3.7
							c0-0.7-0.1-1.3-0.4-1.8c-0.3-0.5-0.6-0.9-1-1.2c-0.4-0.3-0.9-0.4-1.5-0.4h-4.5v-3.5h4.5c0.8,0,1.4-0.3,1.8-0.8
							s0.6-1.3,0.6-2.3v-2.9c0-0.8-0.2-1.3-0.6-1.8s-1-0.6-1.8-0.6h-4.5v-3.5h4.5c1.3,0,2.4,0.2,3.3,0.7c0.9,0.4,1.6,1.1,2.1,1.9
							c0.5,0.9,0.7,1.9,0.7,3.1v3c0,0.9-0.1,1.7-0.4,2.4c-0.3,0.7-0.7,1.3-1.2,1.7c-0.5,0.4-1.2,0.7-1.9,0.9
							c0.8,0.1,1.5,0.4,2.1,0.9c0.6,0.5,1.1,1,1.4,1.8c0.3,0.8,0.5,1.6,0.5,2.5v3.8c0,1.2-0.2,2.3-0.7,3.2s-1.2,1.5-2.1,2
							s-2,0.7-3.3,0.7h-5v-3.7H8026.2z"/>
						<path class="st4" d="M8040.6,360.5h3.7v28.4h-3.7V360.5z M8042.3,373.3h5.2c0.7,0,1.2-0.1,1.7-0.4c0.5-0.2,0.8-0.6,1.1-1.1
							c0.2-0.5,0.4-1,0.4-1.7v-2.9c0-0.7-0.1-1.3-0.4-1.8c-0.2-0.5-0.6-0.9-1.1-1.1c-0.5-0.3-1-0.4-1.7-0.4h-5.2v-3.5h4.9
							c1.5,0,2.8,0.3,3.9,0.8s1.9,1.2,2.5,2.2s0.8,2.1,0.8,3.5v3.3c0,1.4-0.3,2.6-0.8,3.6s-1.4,1.8-2.5,2.3s-2.4,0.8-3.9,0.8h-4.9
							V373.3z M8047.2,376l3.5-0.9l4.5,13.8h-4.1L8047.2,376z"/>
						<path class="st4" d="M8058.7,360.5h3.7v28.4h-3.7V360.5z M8060.6,385.4h9.8v3.5h-9.8C8060.6,388.9,8060.6,385.4,8060.6,385.4z
							"/>
					</g>
				</g>
				<g id="LND">
					<g id="LND_00000019642064389299007230000004815286495491443646_" class="st1">
						<path class="st4" d="M8023.7,360.5h3.7v28.4h-3.7V360.5z M8025.7,385.4h9.8v3.5h-9.8V385.4z"/>
						<path class="st4" d="M8038.4,360.5h3.2l7.8,21.8l-0.6,0.5v-22.3h3.5v28.4h-3.3l-7.7-21.1l0.6-0.5v21.6h-3.5V360.5z"/>
						<path class="st4" d="M8056.3,360.5h3.7v28.4h-3.7V360.5z M8058.6,385.4h5.2c0.7,0,1.2-0.2,1.6-0.6s0.5-1,0.5-1.7v-16.7
							c0-0.7-0.2-1.3-0.5-1.7c-0.3-0.4-0.9-0.6-1.6-0.6h-5.2v-3.5h5.1c1.3,0,2.3,0.2,3.2,0.7s1.6,1.1,2,2s0.7,2,0.7,3.2V383
							c0,1.2-0.2,2.3-0.7,3.2s-1.1,1.6-2,2s-2,0.7-3.2,0.7h-5v-3.5H8058.6z"/>
					</g>
				</g>
			</g>
		</g>
	</g>
</g>
<g id="Vrstva_2">
	<g id="Malé_trojúhelníky">
		<g id="Trojuhelniky">
			<polygon id="Levy" class="st8" points="84.4,338.8 135,451.2 20,451.2 			"/>
			<polygon id="Pravy" class="st8" points="414.5,336.2 365,451.2 480,451.2 			"/>
			<g id="Horni_-_neměny">
				<ellipse class="st9" cx="250" cy="101.4" rx="22.2" ry="12.2"/>
				<circle class="st10" cx="250" cy="101.4" r="6.4"/>
				<g>
					<g>
						<path class="st7" d="M230,121.5h4.3v32.7H230V121.5z M232.6,150.2h6c0.8,0,1.4-0.2,1.8-0.7c0.5-0.5,0.6-1.1,0.6-2v-19.2
							c0-0.8-0.2-1.5-0.6-2c-0.5-0.5-1-0.7-1.8-0.7h-6v-4h5.9c1.5,0,2.6,0.2,3.7,0.8c1,0.6,1.8,1.3,2.3,2.3c0.6,1,0.8,2.3,0.8,3.7
							v19c0,1.4-0.2,2.6-0.8,3.7c-0.6,1-1.3,1.8-2.3,2.3c-1,0.6-2.3,0.8-3.7,0.8h-5.8v-4H232.6z"/>
						<path class="st7" d="M259,121.5h3.1l4.1,25.2l2.9-25.2h4.3l-4.5,32.7h-4.6l-3.5-22.2l-3.7,22.2h-4.6l-4.5-32.7h4.3l2.9,25.2
							L259,121.5z"/>
					</g>
				</g>
				<polygon id="Horni" class="st8" points="250.6,48.8 184.7,163.8 316.1,163.8 				"/>
			</g>
		</g>
	</g>
	<g id="Varianty_zvírat_a_DH">
		<g id="C3">
			<g id="Zvirata">
				<g id="Jedno_kopie">
					<g id="surface1_00000023283295709151637060000011216143227974983811_">
						<g>
							<g>
								<defs>
									<rect id="SVGID_1_" x="328.7" y="272.5" width="64.9" height="119.5"/>
								</defs>
								<clipPath id="SVGID_00000127759679429361837280000010870716697953765820_">
									<use xlink:href="#SVGID_1_"  style="overflow:visible;"/>
								</clipPath>
								<g style="clip-path:url(#SVGID_00000127759679429361837280000010870716697953765820_);">
									<g>
										<path class="st12" d="M363,310.8c-0.3-0.2-0.6-0.6-1.5-0.6c0.1,0.9,0.2,2.1-0.1,2.2c-0.5,0.1-0.8-0.9-1-1.7
											c-0.5,0.8-1.5,2.6-1.5,2.6c0.6,0,1.7,0,1.8,0.5c0.1,0.5-1.8,2.2-3.5-0.1c0.1,0,0.3-0.2,0.3-0.3c0-0.2-0.2-0.2-0.5-0.3
											c-0.2-0.1-0.3-0.2-0.2-0.5c0.1-0.2,0.2-0.1,0.3-0.3c0.1-0.2-0.1-0.2,0.1-0.5c0.1-0.2,0.3-0.3,0.6-0.2
											c0.3,0.2-0.1,1,0.3,1.3c0-0.2,0-0.5,0.3-0.7c0.7-0.6,0.8-1,0.6-1.4c-0.2-0.3-0.6-0.7-1.7,0.1c1.4-1.4,1-2.6,0.8-3.2l0,0
											c-0.6,0.3-1.7,1-1.6,3c-0.3-1.4-0.9-1.4-1.3-1.3c-0.5,0.1-0.7,0.6-0.5,1.4c0,0.3,0,0.6-0.2,0.7c0.5,0.1,0.8-0.8,1.1-0.7
											c0.2,0,0.3,0.3,0.2,0.6c0,0.3-0.2,0.2-0.2,0.3c0,0.2,0.2,0.2,0.1,0.5c-0.1,0.2-0.2,0.2-0.5,0.1c-0.2-0.1-0.5-0.2-0.6-0.1
											c-0.1,0.1-0.1,0.2,0,0.5c0,0,0.3,0.3-1-0.2c-1.1-0.5-1.5-2.1-1.3-2.2c0.5-0.2,1.4,1.1,1.4,1.1s0.5-2.1,0.7-2.9
											c0,0-1.6,0.9-1.7,0.6c-0.2-0.5,1.5-1.6,1.5-1.6c-0.1-0.1-1.7-0.6-2.1-0.6c-0.1,0.6-0.5,2-0.6,2.6c-0.1,0.6,0,1.8-0.3,2.1
											c-0.3,0.2-0.3,0.2,0,0.6c2,0.9,6,2.9,8.3,4.3c2.3,1.4,6.8,4.8,7.6,5.5c0.5,0.1,0.5,0.1,0.6-0.3c0.1-0.5,1.3-0.9,1.7-1.3
											c0.6-0.5,1.6-1.4,2.1-1.7c-0.1-0.3-1.4-1.5-1.5-1.5c0,0-0.3,2.1-0.8,2.1c-0.3,0-0.2-1.8-0.2-1.8c-0.6,0.5-2.2,1.8-2.2,1.8
											s1.7,0.2,1.7,0.7c0,0.3-1.6,0.7-2.5-0.1c-1.1-0.9-0.7-0.8-0.7-0.8c0.1,0,0.3,0,0.3-0.2c0.1-0.2-0.1-0.2-0.3-0.5
											s-0.2-0.3-0.1-0.5c0.2-0.2,0.3,0,0.5-0.1c0.2-0.1,0-0.2,0.2-0.3c0.2-0.1,0.5-0.2,0.7,0s-0.5,0.9-0.1,1.3
											c0.1-0.2,0.1-0.3,0.6-0.6c0.8-0.3,1-0.7,1-1.1c-0.1-0.3-0.3-0.8-1.7-0.6c1.8-0.8,1.8-2.1,2-2.8l0,0
											c-0.7,0.1-2,0.3-2.5,2.2c0.1-1.4-0.3-1.6-0.7-1.6c-0.5,0-0.8,0.2-1,1.1c-0.1,0.3-0.2,0.5-0.5,0.6c0.5,0.3,1-0.5,1.3-0.2
											c0.2,0.1,0.1,0.5,0,0.7c-0.1,0.2-0.2,0.1-0.3,0.2c-0.1,0.2,0.1,0.2-0.1,0.5c-0.1,0.1-0.3,0.1-0.5,0
											c-0.2-0.2-0.3-0.3-0.5-0.3c-0.1,0.1-0.2,0.3-0.2,0.5c-2.8-0.2-2.2-2.8-1.7-3c0.5-0.1,0.9,0.9,1.1,1.4c0,0,1.1-1.7,1.6-2.5
											c-0.8,0-2,0.2-2-0.2c0-0.2,0.9-0.7,1.8-1C363.9,311.2,363.4,311.1,363,310.8L363,310.8z M371.6,350.5
											c0.1-0.2,0-0.5-0.1-0.6c-0.2-0.1-0.5,0-0.6,0.1l-0.2,0.3c-0.1-0.2-0.2-0.3-0.2-0.7c0-0.6,0.5-1,1-1c0.1,0,0.2,0,0.3,0.1
											l-0.1,0.2c-0.1,0.2-0.1,0.5,0.1,0.6c0.2,0.1,0.5,0.1,0.6-0.1l0.1-0.1c0.1,0.1,0.1,0.3,0.1,0.6c0,0.6-0.5,1-1,1
											c-0.1,0-0.1,0-0.2,0L371.6,350.5z M366,358.8L366,358.8c0.7,0,1.1-0.5,1.1-1c0-0.2-0.1-0.5-0.2-0.6l-0.2,0.2
											c-0.1,0.1-0.3,0.2-0.6,0.1c-0.1-0.1-0.2-0.3-0.1-0.6l0.1-0.2c-0.1,0-0.1,0-0.2,0c-0.6,0-1,0.5-1,1c0,0.3,0.1,0.6,0.3,0.7
											l0.2-0.3c0.1-0.2,0.3-0.2,0.6-0.1c0.2,0.1,0.2,0.3,0.1,0.6L366,358.8z M374.4,345c0.1-0.1,0.2-0.1,0.2-0.1
											c-0.1-0.1-0.1-0.2-0.2-0.5V345z M384.5,327.3c0.9,1.4,2.6,2.2,3.1,3.8c1.5,4.7,4.7,5.2,5.9,4.1c-1.8-0.6-2.1-2.3-2-3.1
											c0.7-3.2-2-7.4-1.5-11c0.5-3.7-3.6-5.3-4.5-5.5c-5.8-3.4-11,0.8-11.7,7c-0.8,6.1,7,15.1,8.7,17.5
											c1.7,2.4,7.1,10.7,1.3,12.8c-4.4,1.5-6.4-1.7-8.3-5.5c-0.3,0.5-0.9,0.8-1.5,0.8c-0.2,0-0.5,0-0.7-0.1l-0.6,0.8
											c0.2,0.3,0.5,0.7,0.5,1.1c0,1-0.8,1.8-1.8,1.8c-0.2,0-0.5,0-0.6-0.1l-0.7,1c0.3,0.3,0.5,0.8,0.5,1.3c0,1-0.8,1.8-1.8,1.8
											c-0.3,0-0.6-0.1-0.8-0.2l-0.7,0.9c0.3,0.3,0.5,0.8,0.5,1.3c0,1-0.8,1.8-1.8,1.8c-0.1,0-0.3,0-0.5-0.1l-0.6,1
											c0.5,0.3,0.7,0.8,0.7,1.4c0,0.6-0.2,1-0.7,1.4l-0.5-0.6c0.2-0.2,0.3-0.5,0.3-0.8c0-0.2-0.1-0.5-0.2-0.7l-0.1,0.2
											c-0.1,0.2-0.3,0.2-0.6,0.1c-0.2-0.1-0.2-0.3-0.1-0.6l0.1-0.2h-0.1c-0.5,0-0.8,0.2-0.9,0.6l-0.3-0.2
											c2.1,2.3,4.5,4.3,5.2,5.5c1.4,2.1,2.3,5.5,2.4,6.8c0.6,9.9-4.1,9.3-4.8,10.2s-0.8,3.6-3.2,6.9c1,1.1,2.2,0.6,2.2,0.6
											c0.8-0.3,1.1-1.3,1.7-2.2c0,0,0.1,1.4-0.3,2.5c4.8-1.3,7-4,7.4-6.3c0.3,0.3,1.6,1.1,2.2,2.3c1-2.3,1.1-5.3,0.6-7.5
											c-0.6-2.2,0-6.9,0.3-8.7c0.3-1.8,1.3-3.4,1-4.7s-3.6-5.2-4.1-7.2c-0.6-2.1,0.3-4.8,0.3-7c0.3,0.9,0.9,3.7,1.1,4.7
											c0.3-0.6,1-1,0.9-2.1c0.8,2.4,4.3,6.2,5.8,6.7c-0.6-1.4-0.8-2.3-0.2-3.7c6.4,3.2,10.2-2.8,10.2-4.6
											c-0.9,1.1-1.3,0.8-3.3,1.4c2.8-1.6,2.8-5.2,2.8-6.2c0-8.5-15.2-20.4-12.9-26.9c0.9-2.6,2.5-4.3,4.8-3.2
											C384.3,319.1,382,323.7,384.5,327.3z M368.6,354.9c0.1,0,0.2,0,0.3,0c0.6,0,1-0.5,1-1c0-0.2,0-0.3-0.1-0.5l-0.1,0.1
											c-0.1,0.2-0.3,0.2-0.6,0.1c-0.2-0.1-0.2-0.3-0.1-0.6l0.1-0.2c-0.1,0-0.2-0.1-0.3-0.1c-0.6,0-1,0.5-1,1
											c0,0.2,0.1,0.3,0.1,0.6l0.2-0.2c0.1-0.1,0.3-0.2,0.6-0.1s0.2,0.3,0.1,0.6L368.6,354.9z M358.7,292.1
											c0-0.3-0.5-0.7-1.1-0.9c-0.1-0.6-1.3-0.5-1.5-1.4c-1.3-0.3-2.5,2.5-4,3.5c0,0,1.5,0,2.1-0.2c1,1.4,3.2,0.1,3.2-0.1
											C357.9,293,358.7,292.4,358.7,292.1z M349.1,297.4c-0.1-0.3-0.7-0.3-1.1-0.1c-0.6,0.2-0.8,0.7-0.7,1
											c0.1,0.3,0.7,0.3,1.1,0.1C348.9,298.2,349.2,297.7,349.1,297.4z M362.2,361c-1.4-1.6-2.5-3.3-2.8-5.1
											c-0.6-4.4,1.5-8.9,1.1-13c-0.2,1.3-0.8,2.4-1.3,4c-1-0.6-2.9-5.5-3.7-6.7c-0.8-1.3-9.7-7.5-11.4-10.6
											c-2.2-0.7-3.6-2.9-3.2-2.9c0.5,0,3.1-0.1,4.1,0.2c2.5,0.8,3.1,0.2,3.8,0.3c0.7,0.1,1.3,1.1,2.3,1.5c-1-1-1.5-2.6-2.1-2.8
											c-0.6-0.1-1.3,0.5-2.3,0.3c-1-0.1-1.5-0.2-2-0.6c-2.3-0.1-9.8-0.7-9.8-0.7c0.8,2.9,4,4.6,4,4.6c18.5-0.8,9.1,2.4,2.2,2.6
											c0,0,2.4-0.3,3,0.1c2.8,1.8,2.9,7.4,2.8,8.7c-0.9-0.9-3.6-2.2-4.1-2.3c-0.7-0.2-2-0.1-2.4-0.5c-0.6-0.3-0.9-1.6-1.2-1.7
											c-0.2-0.2-1.3-0.1-2.3-1c-1-1-5.5-7.2-5.5-7.2c-1-1.3-2.9-2.1-2.9-3.2c0-5.9,3.8-6.1,5.1-6.1s7.6-0.6,8.5-0.6
											c0.9,0,3.7,0.2,5.6,0.1c2.1-0.1,2.8-0.9,3.3-1.6c-1.1-0.5-1.6,0.2-2.3,0.6c-0.6,0.2-1.3,0.1-2.6,0.1
											c0.1-0.9,2.6-3.6,2.6-3.6c2.9-1.4,4.3-3.8,4.9-5.6c0.7-1.8,3.6-5.2,3.9-5.6c0.3-0.5,4.1-2.9,4.5-6
											c-0.3,0.8-1.6,2.5-2.5,2.8c-0.8,0.2-2.1-0.5-2.3-0.3c-0.3,0.1-1.7,0.9-1.8,1.6c-0.2,0.7,0.1,1.6-0.1,2.4
											c-0.2,0.9-2.9,1.4-3.5,2.3c-0.7,0.9-0.2,2.5-1.1,1.1c-1-1.4,0-2.8,0.1-3.3c-1.7-0.1-2.2-1.2-2.2-1.5
											c0-0.3,1.4-2.3,1.4-2.3s-1.7,1.8-2.2,2.1c-0.5,0.2-2.2-0.6-2.2-0.6c-0.9-0.5-1.7-4-0.6-4.6c1.8-0.9,6.6-6,7-6.6
											c0.6-0.7,0.1-1.3,0.8-1.6c0.6-0.3,2.3-0.8,3.3-1c-0.3-0.5-0.3-0.7-0.3-0.7c-0.3-0.3-0.8-0.3-1.1-0.7
											c-0.3-0.2-0.6-0.9-0.8-1.2c-0.2-0.2-0.8,0-1-0.2c-0.3-0.2-0.3-0.8-0.8-1c-0.5-0.2-0.8,0-1.3-0.5c-0.5-0.3-0.2-0.7-0.7-0.9
											c-0.3-0.2-0.7,0-1-0.3c-0.5-0.3-0.2-0.6-0.6-0.9c-0.3-0.2-0.7-0.1-1-0.3c-0.3-0.2-0.5-0.8-0.7-0.9
											c-0.3-0.2-0.5,0.1-0.8-0.1c-0.2-0.2-0.3-0.8-0.7-1c-0.3-0.2-0.6,0-0.9-0.3c-0.3-0.2-0.5-0.6-0.7-0.8
											c-0.3-0.3-0.6-0.3-0.6-0.3l-5.4-4.5l6.3,3c0,0,0.1,0.2,0.6,0.5c0.2,0.1,0.6,0.1,1,0.3c0.3,0.2,0.3,0.5,0.7,0.7
											s0.9,0,1.2,0.2c0.3,0.2,0.1,0.5,0.5,0.7c0.3,0.2,0.8,0,1.1,0.2c0.3,0.2,0.3,0.6,0.8,0.8c0.3,0.2,0.6,0,1,0.2
											c0.5,0.2,0.3,0.6,0.7,0.8c0.3,0.2,0.6-0.1,1,0.2c0.6,0.3,0.5,0.8,0.9,1c0.5,0.2,0.9,0,1.3,0.2c0.2,0.1,0.3,0.7,0.6,0.9
											c0.2,0.1,1,0.1,1.4,0.3c0,0,1.4,0.6,0.5-1.4c1,0.3,1.7,1.7,1.8,2.8c0.1,1.3,1,1.4,1,1.4s-0.8-1.4-0.8-5.3
											c1.7,1.7,4.7,3.2,6,6.1c0.3,0.8,0.2-2.1,0.2-2.1c1.7-0.2,4.1,2,9.3,2.4c-0.3,1.4-0.7,1.7-2.3,2c0.6,0.6,1,1.8,4.5,2.3
											c-0.3,0.7-0.6,1.3-2.2,2.1c2.4,0.8,1.6,3,4.7,4.3c-0.5,1.3-1.3,1.5-3,1.8c1.6,1.8,1,5.9,3.7,6.8c-0.6,1.2-2.4,1.7-4,1.5
											c-0.1,1.3,0.1,4.1,1.6,4.7c-0.8,1.2-2.5,1.4-3.7,0.8c0,0.6,0.5,1.1,1.5,1.7c-0.7,1.1-2.3,2.1-4.7,1.1c0,0-7,6.7-6.1,12.2
											c0.9,5.6,7.8,12.7,9.1,15.2c0.1,0.2,0.2,0.5,0.3,0.7c-0.1,0-0.1,0-0.2,0c-1,0-1.8,0.8-1.8,1.8c0,0.6,0.2,1,0.6,1.4
											l-0.6,0.7c-0.2-0.1-0.6-0.2-0.8-0.2c-1,0-1.8,0.8-1.8,1.8c0,0.6,0.2,1,0.6,1.4l-0.6,1c-0.2-0.1-0.5-0.1-0.7-0.1
											c-1,0-1.8,0.8-1.8,1.8c0,0.5,0.1,0.9,0.5,1.1l-0.7,1c-0.2-0.1-0.5-0.1-0.7-0.1c-1,0-1.8,0.8-1.8,1.8
											c0,0.6,0.2,1.1,0.7,1.5l-0.6,1c-0.1,0-0.3-0.1-0.5-0.1C363.2,360.2,362.6,360.5,362.2,361z M374.3,346.9
											c0.1-0.2,0.1-0.5-0.1-0.6c-0.2-0.1-0.5-0.1-0.6,0.1l-0.2,0.3c-0.1-0.2-0.2-0.5-0.2-0.7c0-0.6,0.5-1,1-1c0.1,0,0.1,0,0.2,0
											c0,0.1-0.1,0.1-0.1,0.2v0.5c0,0.2,0.1,0.5,0.3,0.5c0.2,0,0.5-0.1,0.5-0.3v-0.1c0.2,0.3,0.3,0.8,0.6,1.1l-0.5-0.2
											c-0.2,0.3-0.6,0.6-0.9,0.6h-0.1L374.3,346.9"/>
									</g>
								</g>
							</g>
						</g>
						<g>
							<path class="st12" d="M335.1,369.8c-2.5-0.1-3.6,4.7-5.2,7.4c0.2,0,0.6,0,0.8,0.1c0.9-0.6,1.6-1.4,2-2.3
								c0.6,0.2,0.5,0.6,0.5,0.6s-0.3,1.4-1.3,2.2c0.1,0,0.2,0.1,0.3,0.2c1.5,0.3,4.9,1.1,6.1-2.5c0.8-0.2,1.3-0.8,1.3-0.8
								s-0.8,2-1,2.4c1.4-0.3,2.2-0.2,4.6-2.6c2.4-2.4,8.6-4,10.2-4.4c1.6-0.3,6.1-1.4,3.1-5.6c-0.7-0.9-0.3-5.1,0.2-6
								c0.6-0.8,1.8-0.8,1.8-0.8s-0.9-4.3,0.3-9.2c-1.2-1.6-2.6-3.4-3-5.5l-0.1,0.2c-2.9,3.3-11.7,2.1-12.4,7.7
								c-0.6,5.2,5.2,11,5.3,13.2C348.8,367.9,339,370.1,335.1,369.8z"/>
						</g>
						<g>
							<path class="st7" d="M355.5,292.5c-0.3,0-0.7-0.2-0.9-0.5c-0.1-0.2-0.1-0.5,0.1-0.7c0.2-0.1,0.5-0.1,0.7,0.1
								c0,0,0.1,0.1,0.2,0c0-0.2,0.2-0.5,0.5-0.5s0.5,0.2,0.5,0.5c0,0.5-0.2,0.8-0.7,0.9C355.7,292.5,355.6,292.5,355.5,292.5z"/>
						</g>
						<g>
							<path class="st12" d="M338.8,316.8l-0.2,0.5c-0.1,0.2-0.3,0.2-0.6,0.2c-0.2-0.1-0.2-0.3-0.1-0.6l0.1-0.3
								c-0.6,0.1-0.9,0.5-0.9,1c0,0.1,0,0.2,0,0.3c0.5-0.1,1.3-0.1,2.1-0.1c0-0.1,0-0.1,0-0.2C339.2,317.4,339,317,338.8,316.8"/>
						</g>
						<g>
							<path class="st12" d="M340,315.5c-0.2,0-0.3,0-0.6-0.1l-0.3,0.7c0.5,0.3,0.8,0.9,0.8,1.6c0,0.1,0,0.1,0,0.2
								c1.8,0,3.8,0,4.8-0.1c-1.3-0.9-2.3-2-3.2-3C341.3,315.2,340.7,315.5,340,315.5"/>
						</g>
						<g>
							<path class="st12" d="M339,313.6c0,0.2,0.1,0.5,0.2,0.6l0.1-0.2c0.1-0.2,0.3-0.2,0.6-0.1c0.2,0.1,0.2,0.3,0.2,0.6l-0.2,0.3
								c0.1,0,0.1,0,0.2,0c0.5,0,0.8-0.2,1-0.7c-0.5-0.5-0.8-1-1.1-1.5C339.4,312.7,339,313.1,339,313.6"/>
						</g>
						<g>
							<path class="st12" d="M336.8,316.4c0.3-0.3,0.8-0.5,1.3-0.5c0.1,0,0.2,0,0.2,0l0.5-0.8c-0.3-0.3-0.6-0.8-0.6-1.4
								c0-0.8,0.5-1.5,1.3-1.7c-1.4-1.8-2.3-3.4-3.1-4c-1.7-1.3-5.9-0.9-7.7,0.7c-1.8,1.6-7.2,4-8.2,4.6l4.8,3.6
								c0,0,0.2,0.6,0.2-0.6c0-1.2,4.6-2.5,5.5-3c1.7,1.3,3.1-0.2,3.7,1c0.5,1,1,1.8,1.6,2.9C336.4,316.8,336.6,316.6,336.8,316.4"
								/>
						</g>
						<g>
							<path class="st7" d="M344.2,312.6c-1.1,0-2.2-0.9-2.2-2.2c0-1.1,0.9-2.2,2.2-2.2s2.2,0.9,2.2,2.2S345.5,312.6,344.2,312.6z
								 M344.2,309.6c-0.5,0-0.8,0.3-0.8,0.8c0,0.5,0.3,0.8,0.8,0.8s0.8-0.3,0.8-0.8C345,309.9,344.6,309.6,344.2,309.6z
								 M349.1,311.9c-0.6,0-1.1-0.2-1.5-0.7c-0.5-0.5-0.7-0.9-0.7-1.5c0-1.1,0.9-2.2,2.2-2.2c1.2,0,2.2,0.9,2.2,2.2
								S350.4,311.9,349.1,311.9L349.1,311.9L349.1,311.9z M349.1,308.9c-0.5,0-0.8,0.3-0.8,0.8c0,0.2,0.1,0.3,0.2,0.6
								c0.1,0.1,0.3,0.2,0.6,0.2l0,0l0,0c0.5,0,0.8-0.3,0.8-0.8C349.9,309.2,349.6,308.9,349.1,308.9z"/>
						</g>
						<g>
							<path class="st7" d="M340.7,313.8c-0.2,0-0.5-0.1-0.6-0.3c-0.2-0.3-0.1-0.8,0.1-0.9l3-2.2c0.3-0.2,0.8-0.1,0.9,0.1
								c0.2,0.3,0.1,0.8-0.1,0.9l-3,2.2C341,313.7,340.9,313.8,340.7,313.8z M353.3,311.6c-0.1,0-0.1,0-0.2,0l-3.6-1.1
								c-0.1,0-0.3-0.1-0.3-0.3c-0.1,0.1-0.2,0.1-0.3,0.1l-3.7,0.6c-0.3,0.1-0.7-0.2-0.8-0.6c0-0.3,0.2-0.7,0.6-0.8l3.7-0.6
								c0.2,0,0.6,0.1,0.7,0.3c0.2-0.1,0.5-0.2,0.6-0.1l3.6,1.1c0.3,0.1,0.6,0.5,0.5,0.9C353.8,311.5,353.5,311.6,353.3,311.6z"/>
						</g>
						<g>
							<path class="st7" d="M377.3,377.6c-0.6,0-1.1-0.2-1.5-0.6c-0.5-0.5-0.7-0.9-0.7-1.5s0.2-1.1,0.7-1.5c0.5-0.5,0.9-0.6,1.5-0.6
								l0,0c1.1,0,2.2,0.9,2.2,2.2C379.5,376.6,378.5,377.6,377.3,377.6L377.3,377.6L377.3,377.6z M377.3,374.7
								c-0.2,0-0.3,0.1-0.6,0.2c-0.1,0.1-0.2,0.3-0.2,0.6s0.1,0.5,0.2,0.6c0.1,0.1,0.3,0.2,0.6,0.2l0,0l0,0c0.5,0,0.8-0.3,0.8-0.8
								C378,375,377.6,374.7,377.3,374.7L377.3,374.7z M367.3,376.4c-1.1,0-2.2-0.9-2.2-2.2c0-0.6,0.2-1.2,0.7-1.5
								c0.5-0.5,0.9-0.7,1.5-0.7l0,0c1.2,0,2.2,0.9,2.2,2.2C369.5,375.5,368.5,376.4,367.3,376.4z M367.3,373.5
								c-0.2,0-0.3,0.1-0.6,0.2c-0.1,0.1-0.2,0.3-0.2,0.6c0,0.5,0.3,0.8,0.8,0.8c0.5,0,0.8-0.3,0.8-0.8
								C368.1,373.9,367.8,373.5,367.3,373.5L367.3,373.5z M364,373.3c-1.1,0-2.2-0.9-2.2-2.2c0-1.2,0.9-2.2,2.2-2.2
								c1.3,0,2.2,0.9,2.2,2.2C366.1,372.4,365.1,373.3,364,373.3z M364,370.4c-0.5,0-0.8,0.3-0.8,0.8c0,0.5,0.3,0.8,0.8,0.8
								c0.5,0,0.8-0.3,0.8-0.8C364.8,370.8,364.4,370.4,364,370.4z M362.8,368.8c-1.1,0-2.2-0.9-2.2-2.2c0-0.6,0.2-1.1,0.7-1.5
								c0.5-0.5,0.9-0.6,1.5-0.6l0,0c1.1,0,2.2,0.9,2.2,2.2C365,367.9,364.1,368.8,362.8,368.8z M362.8,365.8
								c-0.2,0-0.3,0.1-0.6,0.2c-0.1,0.1-0.2,0.3-0.2,0.6c0,0.5,0.3,0.8,0.8,0.8c0.5,0,0.8-0.3,0.8-0.8
								C363.6,366.1,363.3,365.8,362.8,365.8L362.8,365.8z M374.9,343.8c-0.6,0-1.1-0.2-1.5-0.7c-0.5-0.5-0.7-0.9-0.7-1.5
								c0-0.6,0.2-1.2,0.7-1.5c0.5-0.5,0.9-0.7,1.5-0.7l0,0c1.1,0,2.2,0.9,2.2,2.2C377.1,342.9,376,343.8,374.9,343.8L374.9,343.8
								L374.9,343.8z M374.9,340.9c-0.2,0-0.3,0.1-0.6,0.2c-0.1,0.1-0.2,0.3-0.2,0.6c0,0.2,0.1,0.5,0.2,0.6c0.1,0.1,0.3,0.2,0.6,0.2
								l0,0l0,0c0.5,0,0.8-0.3,0.8-0.8C375.7,341.2,375.4,340.9,374.9,340.9L374.9,340.9z M372.2,339.7c-1.2,0-2.2-0.9-2.2-2.2
								c0-1.1,0.9-2.2,2.2-2.2c1.3,0,2.2,0.9,2.2,2.2C374.4,338.8,373.5,339.7,372.2,339.7z M372.2,336.8c-0.5,0-0.8,0.3-0.8,0.8
								c0,0.5,0.3,0.8,0.8,0.8c0.5,0,0.8-0.3,0.8-0.8S372.7,336.8,372.2,336.8z M368.7,336.4c-1.1,0-2.2-0.9-2.2-2.2
								c0-1.1,0.9-2.2,2.2-2.2c1.1,0,2.2,0.9,2.2,2.2C370.9,335.3,369.9,336.4,368.7,336.4z M368.7,333.4c-0.5,0-0.8,0.3-0.8,0.8
								c0,0.5,0.3,0.8,0.8,0.8c0.5,0,0.8-0.3,0.8-0.8C369.5,333.7,369.1,333.4,368.7,333.4z"/>
						</g>
						<g>
							<path class="st13" d="M342.1,314.4l-1.4-0.5c0.1-0.3,0.1-0.7-0.1-0.9c-0.2-0.2-0.6-0.3-0.9-0.2l-0.2-1.4
								c0.9-0.1,1.7,0.1,2.2,0.7C342.2,312.8,342.5,313.6,342.1,314.4z"/>
						</g>
						<g>
							<path class="st7" d="M372.7,376.5c-0.3,0-0.7-0.3-0.7-0.7c0-0.3,0.2-0.7,0.7-0.7l3.9-0.1c0.3,0,0.7,0.2,0.7,0.7
								c0,0.3-0.2,0.7-0.7,0.7L372.7,376.5L372.7,376.5z"/>
						</g>
						<g>
							<path class="st7" d="M377.9,375.9c-0.2,0-0.5-0.1-0.6-0.3c-0.2-0.3-0.1-0.8,0.2-0.9l3.3-2.2c0.3-0.2,0.8-0.1,0.9,0.2
								c0.2,0.3,0.1,0.8-0.2,0.9l-3.3,2.2C378.1,375.8,378,375.9,377.9,375.9z"/>
						</g>
						<g>
							<path class="st7" d="M371,376h-0.1l-3.1-0.7c-0.3-0.1-0.6-0.5-0.6-0.8c0.1-0.3,0.5-0.6,0.8-0.6l3.1,0.7
								c0.3,0.1,0.6,0.5,0.6,0.8C371.6,375.8,371.3,376,371,376z"/>
						</g>
						<g>
							<path class="st7" d="M366.8,374.7c-0.1,0-0.3-0.1-0.5-0.2l-2.5-2.3c-0.2-0.2-0.3-0.7,0-1c0.2-0.2,0.7-0.3,1,0l2.5,2.3
								c0.2,0.2,0.3,0.7,0,1C367.2,374.5,367,374.7,366.8,374.7z"/>
						</g>
						<g>
							<path class="st7" d="M363.9,371.3c-0.3,0-0.6-0.2-0.7-0.6l-0.8-3.3c-0.1-0.3,0.1-0.8,0.6-0.8c0.3-0.1,0.8,0.1,0.8,0.6
								l0.8,3.3c0.1,0.3-0.1,0.8-0.6,0.8H363.9z"/>
						</g>
						<g>
							<path class="st7" d="M362.9,366.7h-0.1c-0.3-0.1-0.6-0.5-0.5-0.8l0.8-3.3c0.1-0.3,0.5-0.6,0.8-0.5s0.6,0.5,0.5,0.8l-0.8,3.3
								C363.6,366.5,363.3,366.7,362.9,366.7z"/>
						</g>
						<g>
							<path class="st7" d="M374.8,341.8c-0.2,0-0.5-0.1-0.6-0.2l-2.2-2.9c-0.2-0.3-0.1-0.7,0.1-0.9c0.3-0.2,0.7-0.1,0.9,0.1
								l2.2,2.9c0.2,0.3,0.1,0.7-0.1,0.9C375,341.8,374.9,341.8,374.8,341.8z"/>
						</g>
						<g>
							<path class="st7" d="M368.1,334.5c-0.1,0-0.2,0-0.2,0l-1.8-0.8c-0.3-0.1-0.6-0.6-0.3-0.9c0.1-0.3,0.6-0.6,0.9-0.3l1.8,0.8
								c0.3,0.1,0.6,0.6,0.3,0.9C368.7,334.4,368.5,334.5,368.1,334.5z"/>
						</g>
						<g>
							<path class="st7" d="M371.8,337.7c-0.1,0-0.3-0.1-0.5-0.2l-2.8-2.5c-0.2-0.2-0.3-0.7,0-1c0.2-0.2,0.7-0.3,1,0l2.8,2.5
								c0.2,0.2,0.3,0.7,0,1C372.2,337.7,372,337.7,371.8,337.7z"/>
						</g>
						<g>
							<g>
								<g>
									<path class="st7" d="M382.4,375.9c-1,0-2-0.3-2.6-1c-0.7-0.7-1-1.6-1-2.6c0-2.1,1.6-3.7,3.7-3.7c2.1,0,3.7,1.6,3.7,3.7
										C386,374.3,384.4,375.9,382.4,375.9L382.4,375.9L382.4,375.9z M382.4,370.6c-0.9,0-1.6,0.7-1.6,1.6c0,0.5,0.1,0.8,0.5,1.1
										c0.3,0.3,0.7,0.5,1.2,0.5l0,0l0,0c0.9,0,1.6-0.7,1.6-1.6C384.1,371.3,383.3,370.6,382.4,370.6z"/>
								</g>
							</g>
						</g>
						<g>
							<path class="st7" d="M342.8,332.8c-1.1,0-2.2-0.9-2.2-2.2c0-1.2,0.9-2.2,2.2-2.2c1.1,0,2.2,0.9,2.2,2.2
								C345,331.9,344.1,332.8,342.8,332.8z M342.8,329.9c-0.5,0-0.8,0.3-0.8,0.8c0,0.5,0.3,0.8,0.8,0.8c0.5,0,0.8-0.3,0.8-0.8
								C343.6,330.3,343.3,329.9,342.8,329.9z"/>
						</g>
						<g>
							<path class="st7" d="M347.3,334.6c-1.1,0-2.2-0.9-2.2-2.2c0-0.8,0.5-1.6,1.1-2l0.7,1.3c-0.2,0.1-0.5,0.3-0.5,0.7
								c0,0.5,0.3,0.8,0.8,0.8c0.2,0,0.5-0.1,0.5-0.2l0.9,1C348.3,334.4,347.9,334.6,347.3,334.6z"/>
						</g>
						<g>
							<path class="st7" d="M376.2,347.2l-1.3-0.7c0.1-0.1,0.1-0.2,0.1-0.3c0-0.3-0.2-0.7-0.7-0.8l0.2-1.4c1,0.2,1.7,1,1.7,2.2
								C376.4,346.5,376.3,346.8,376.2,347.2z"/>
						</g>
						<g>
							<path class="st7" d="M363.9,364.2c-1.1,0-2.2-0.9-2.2-2.2c0-0.3,0.1-0.7,0.2-1l1.3,0.7c-0.1,0.1-0.1,0.2-0.1,0.3
								c0,0.5,0.3,0.8,0.8,0.8c0.2,0,0.3-0.1,0.5-0.2l0.9,1C364.9,364.1,364.3,364.2,363.9,364.2z"/>
						</g>
						<g>
							<path class="st7" d="M346.7,333.1c-0.1,0-0.2,0-0.2,0l-3.4-1.5c-0.3-0.1-0.5-0.5-0.5-0.7c-0.2,0.1-0.6,0.1-0.8-0.1l-2.8-2.5
								c-0.2-0.2-0.3-0.7,0-1c0.2-0.2,0.7-0.3,1,0l2.8,2.5c0.1,0.1,0.2,0.3,0.2,0.6c0.2-0.1,0.5-0.1,0.6,0l3.5,1.5
								c0.3,0.1,0.6,0.6,0.3,0.9C347.3,333,347.1,333.1,346.7,333.1z"/>
						</g>
						<g>
							<path class="st7" d="M339.4,329.6c-1.1,0-2.2-0.9-2.2-2.2s0.9-2.2,2.2-2.2s2.2,0.9,2.2,2.2S340.6,329.6,339.4,329.6z
								 M339.4,326.6c-0.5,0-0.8,0.3-0.8,0.8s0.3,0.8,0.8,0.8s0.8-0.3,0.8-0.8S339.8,326.6,339.4,326.6z"/>
						</g>
					</g>
					<g id="Vrstva_9_kopie">
						<path class="st7" d="M323.6,320.7c0.3-0.6-0.1-3-0.1-3s2-0.5,2-0.8c-0.5-0.6,0.5-1.3,0-1.8c-0.2-0.3-2.9-0.7-3.2-0.8
							c0.5,0.5,0.5,0.6,0.3,0.3c-0.1-0.1-0.2-0.2-0.2-0.3c-0.2-0.2-0.3-0.3-0.6-0.6c-0.1-0.1-0.1-0.1-0.2-0.2c0,0,0,0-0.1,0h-0.1
							c-0.2-0.1-0.5-0.2-0.7-0.3c-0.1,0.1-0.3,0.3-0.3,0.5c-0.9,1-0.7,2.1-0.9,2.3c-0.2,0.2-1.4,0.7-1.7,1.1
							c-0.3,0.6-0.1,1.8-0.3,2.5c-0.1,0.7-1.1,3.3-2.1,4.3C316.5,324.1,321.9,323.6,323.6,320.7z"/>
					</g>
				</g>
				<g id="Lev">
					<g id="Vrstva_22">
						<g id="Lev_-_plochy">
							<g id="Vrstva_37">
								<path class="st14" d="M8088.8,8285.6c0,0,0.5,2,1.6,2.4c0.9,0.3,1.7-0.2,1.7-0.2s1.4,0.7,0.6-0.1c-0.8-0.8-0.9-0.8-2.2-1.4
									C8089.1,8285.9,8088.9,8285.9,8088.8,8285.6"/>
								<path class="st12" d="M134.1,384.8c0.9,0.1,3-0.3,3.7,0.2c0.7,0.6,1.5,1.3,1.5,1.3l-0.5,0.5c0,0,0.9,1.3,0,0.8
									c-0.9-0.5-0.6-1.4-2-1.6C135.3,385.7,135,385.9,134.1,384.8"/>
								<path class="st12" d="M137.1,386.6c-0.3,0.8-0.6,1.4-0.2,2c0.3,0.6,1.6,0.6,1.6,0.6s-0.8-0.2-1.1-1.3
									C137,386.9,137.1,386.6,137.1,386.6"/>
								<path class="st12" d="M131.4,390.6c0-0.6,0.3-1.3,0.9-1.5c0,0.6,0.1,1.5,0.5,1.7C133.2,391,131.4,390.6,131.4,390.6"/>
								<path class="st12" d="M122.5,373.3c0,0,0-1.4,0.5-2.9c0.5-1.5,1.4-1.8,2.2-3c-1.3,0.8-2.3,0.5-3.3,1.1
									C120.9,369.5,122.1,371.8,122.5,373.3z M149.4,289.6c0,0,0-0.1-0.2-0.1s-2.2,0.1-3.1,0.6c-0.6,0.2-1,0.6-1.3,0.8
									c-0.1-0.1-0.1-0.2-0.2-0.3c-0.2-0.2-0.6-0.3-0.6-0.3c-0.3,0.1-0.6,0.6-0.2,0.9c0.3,0.3,2.6,4.1,3,4c0.1,0,0.1-0.3-0.1-0.8
									c1-0.2,1.5-0.8,1.7-1.3c0.6-1.1,0.2-2.5,0-3C148.6,289.9,148.8,289.8,149.4,289.6z M141.9,290.9c0,0-0.3,0.1-0.3,0.7
									c0,0.1,0,0.2,0,0.3c-0.7,0.1-1.6,0.5-2.6,1.1c-0.5,0.3-1.7,1.6-1.7,2.9c0.5-0.3,1-0.8,1.4-1.3c0.5,0.8,1.4,2.3,4,1.3
									c0.2,0.3,0.3,0.6,0.5,0.6c0.3-0.1-0.5-4.5-0.5-4.9C142.7,291.1,142.2,290.8,141.9,290.9z M151.2,299.1
									c-0.9,0.7-1.4,2.2-2.4,1.7c-1-0.5-1.2-1.1-0.8-2.4c0.3-1.3-2.2,1.3-2.2,1.3s1.7,0.8,1.5,1.7c-0.2,0.9-2.2,1.1-3.1,1.3
									c-0.9,0.1-1,1.5,1.2,1.4c2.2-0.1,2.4,1.5,2.9,1.8c0.5,0.5,0.9,2,2.6,1c1.4-0.7,1-1.6,0.8-2.5c0,0-0.5-0.9-0.6-2.1
									c0-1.1,0.9-1.8,1.1-2.4C152.5,299.3,151.9,298.5,151.2,299.1z M163.8,315.7l-0.1,2.2c-1-1.5-2-4.7-3.3-6
									c0.3,2,1.5,6.2,0.3,8.9c0.8-0.8,1.4-0.9,1.5-2.4c0.6,0.8,1.3,1.7,2.8,2.3c-0.2-1.4-0.3-3.2,0-3.8
									C165,316.2,163.8,315.7,163.8,315.7z M144.1,315.9c-2.8,2.4,0.1,7.1,1.3,9c0.1-1.6,0.8-1.1,1.4-3.3c0.8,1.3,1.7,2,1.4,3.3
									c0.8-0.6,1.4-1.7,1.3-2.8c-0.5,0.5-0.6,0.5-0.6,0.5s-0.1-0.6-1-1.7c-0.9-1.1-0.6-2.4-0.7-3c-0.6,0.9-1.1,3.6-1.7,4
									C143.3,318.9,143.6,316.9,144.1,315.9z M153.2,303.7c-0.6,1.8,0.5,3,0.8,4c0.3,1,0.7,1.8,0.5,2.9c1.4-1.5,2.5-3.7,0.5-6.4
									c-0.1,1.5,0,1.6-0.1,2.9C154.3,305.9,153.2,303.7,153.2,303.7z M154.1,299.3c-0.1,1.5,0.1,2.5,0.9,3.6
									c0.8,1,1.4,2.1,1.4,2.1s0.1-0.9-0.8-2.9C154.8,300,154.2,300.5,154.1,299.3z M156.9,302.6c0.3-3.2-0.3-5.5-3.1-6.7
									C155.4,297.8,156,300.4,156.9,302.6z M145.1,306.1c-0.7,1.7-0.3,2.6,0,4.3c0.3,1.6,0.6,2.8,0.6,2.8c0.7-0.5,2.8-3,1.5-6.1
									c-0.5,0.8-0.3,2.2-0.8,3.2C145.9,309.1,145.1,307.4,145.1,306.1z M142.7,304.3c-1.2,0.2-2.1,4.6,0.1,6
									C142.7,308.1,142.1,306,142.7,304.3z M138.7,301.2c-1,1.5-1.7,2.4,0.5,6.6c1-2.1,1.4-3.3,3-4.5c0,0-2.8,0.6-3.1,1.7
									C138.4,303.8,138,302.7,138.7,301.2z M151.4,290c0.8,0.6,0.1,1.1,0.7,1.1c1,0,0.6-1.7,0.9-1.5c0.3,0.3,0.5,0.7,0.9,1.6
									c1-2-0.2-3.2-0.8-3.5c-0.6-0.3-3.3,1.4-2.6,2L151.4,290z M134.1,299.1c-1.7-1-0.9-1.1-0.6-1.8c0.7,1.1,0.8,1,1.6,0.8
									c-0.5-0.9,0.7-1.1-0.1-2.3c-0.9-1.1-2.9,0.6-3.1,1.3C131.2,299,133.4,299.1,134.1,299.1z M129.8,292c2.1,0,3.2-0.3,3.9-0.5
									c1.5-0.5,5.3-3.7,7.7-4.6c2.3-0.9,4.9-1.5,6.2-2.1c1.3-0.6,2.9-1.8,3.3-2.4c0.1,0.7,0.3,1-0.1,2.1c1-0.1,2-0.3,2.5-0.8
									c0.2,1,0.2,1.8,0,2.3c0.3,0,1.6-0.3,2.8,1.3c0.6,0.8,0.3,3.1,0,4.3c2.8,0.3,3.3,1.4,4.3,1.3c-0.7,1-1.7,1.1-1.8,1.3
									c0.9,0.7,1.3,1.1,1.7,1.6c0.5,0.5,1.4,0.6,2.1,0.6c-0.3,0.8-0.6,1.4-2,2.1c0.6,0.9,1.7,2.8,1.8,3.8c0.1,1,0.9,2.5,1.8,3.5
									c-0.9,0.2-1.4,0.5-1.8-0.1c0.3,0.9,2.1,4,3,4.7c-0.7,0.3-1.1,1-1.8,1.4c0.7,0.6,1.3,1.7,2.9,2.4c-0.5,1.1-0.9,1.6-1.4,1.8
									c0.3,0.3,0.8,0.7,1.4,0.7c0.8-0.1,6.1-1.8,7-2.1c1-0.3,4.9-1.3,5.9-0.3c-2.8,1.7-5.6,7.7-9.5,8.6c-5.1,0.7-5.2,5.3-6.1,6.2
									c0,0,3.3,4.3,3.4,6s0,3.3-0.3,5.2c-0.2,1.8-0.2,3.2-0.1,3.9c0.1,1,0.3,2.5-0.2,3c-0.6,0.6-1.2,0.5-1.5,0.9s-1.7,2-2.8,2
									s-2.4-0.6-3-1.7c0.6-0.5,1.8-0.8,1.8-0.8s-3.1-0.6-3.2-3.7c0.5,0.1,1.5,0.5,2.5,0.1c-0.6-0.6-1.7-1.1-2.1-2.5
									c0.9-0.1,1.4-0.5,1.8-1.4c-0.8,0.3-1.1,0.5-1.1,0.5s0.6-1.4,0-2.9c-0.6,0.5-1,0.6-2.1,0.8c0-1.5-0.6-5.4-1.8-5.2
									c-0.1,1-2-0.7-1.4-0.1c-1.8-1.8-2.1-3.3-2-6.4c-0.5,1-1.4,3.6-0.5,5.4c0.8,1.8,2,2.6,2.4,3.1c0.2-0.3,0.1-0.8,0.8-0.5
									c0.5,0.2,0.8,0.2,1,2c0.2,2-1.2,4.9-2.4,6.7c0,0-0.7-2.2-0.8-2.4c-0.1-0.2-0.6,1-0.9,1.3s-2.6,0.1-3,0.8
									c-0.3,0.6,0,2.1-0.6,2.8s-0.8,0.8-1.4,1.3c-0.5,0.5-1.7,1.8-2,2.3c-0.1-0.9,0.1-2,0.5-3c0.3-1,0.9-2.3,0.6-3.7
									c-0.3,0.8-2.1,4-2.2,5.5c-0.1,1.5-0.2,2.8-0.1,4.3c0.1,1.6,0.3,3.9-0.3,6.6c-0.6,2.5-3,3.8-5.2,5.9
									c-2.2,2.1-7.9,6.6-8.6,7.7c-0.8,1.1-1,3.9-0.6,4.8c0.3,1,1,2.3,2.1,3.3c1,1,2.4,2.6,4,2.1c0.6-0.2,2.3-0.7,3.2-0.6
									c0.9,0.1,2.2,0.5,3,1.5c0.8,1,1.7,3.4,1.7,4.4c0,0-0.6-1.3-3.7-1.2c0.3,0.9,1.1,2.3-0.3,4.8c-0.5-0.9-0.5-0.8-2.1-1.6
									c-0.7,0.5-2.3,1.3-2.6,1.5c-0.2,0.8-0.3,1.7-1,2.6c-0.5-0.8-1.4-2.2-1.4-2.2s-2.4-0.1-3.7-1.5c-0.3,0.9-1.4,2.5-1.5,2.5
									c-0.1-0.1-1.8-0.5-2.3-1.5c0,0-0.9-2.8-0.1-4.8c0,0-1,0.6-1.5,1.6c-0.8-1.1-1.4-1.6-1.8-2.8c-0.5,0.7-0.6,0.9-0.6,1.3
									c-0.7-1.2-0.9-2.6-0.9-4.1c0-1.5,0.9-3.9,1.1-5.2c0.2-1.3-1.6-7.2-0.5-9.2c0.8-1.5,2.9-1.7,3.9-2.1c1.2-0.5,4.4-3,4.7-7.6
									c-0.8-0.1-2.3-0.3-2.8-1.5c-0.8,0.6-4.1,2.6-6.8,2.9c0.5-1,0.5-1.6,0.5-1.6s-5.1,1.5-6.6-4c1,0.5,2.2,0.1,2.2,0.1
									s-1.5-2.2-1.6-4.8c-0.1-7.5,9.7-16.4,12.2-20.1c3.4-4.9,2.3-9.2-1.3-9c-2.8,0.2-0.9,2.9-1,4.5c-0.2,2.4-4.6,6-4.6,7.2
									c-0.2-0.9-0.6-1.4-0.3-2.3c-0.7,0.6-2.2,2.5-2.5,4.9c-1.4-0.7-2.2-1.7-2.3-3.6c-0.1-1.8,2.1-6.1,2.1-8.3
									c-0.1-2.3,5.9-6.7,10-6.2c3.4,0.5,8.7,5.1,2.8,14.8c-5.5,9-14.6,17.5-8.5,21.2c4.5,2.6,9.1-7.4,12.5-11.7
									c2-2.5,11-14,9-18.7c-0.9,0.1-1.8,0.5-2.2,0.3c0.1-0.8,0.9-2.4,0.5-4.5c-0.5,0.6-0.6,0.5-1.6,1.2c0.2-1.5-0.5-4.4-1.2-5.6
									c-0.5,0.6-0.8,1.1-1.6,2.1c-1.5-2.4-2.1-5.2-1.8-7.2c-0.7-0.1-2,0.9-2.2,1.1c0.9-2.9-0.3-6,0.3-8.7
									c-1.7-0.3-3.9-4.9,1.6-7.1C132.1,293.4,130.2,292.1,129.8,292"/>
								<path class="st12" d="M149.6,366.4c-1.1-1.1-1.1-3-1.4-5.1c-1.2,1.4-1.5,2.5-1.3,3.8C147,365.1,148.1,365.9,149.6,366.4z
									 M144.7,350.6c0.3-1,3.6-3.6,4.3-4.6c0.7-1.1,0.8-1.5,0.8-2.5c0.9-0.2,5.9-0.6,7.2,2.1c2.5,4.6-2.5,14.3-2.5,16.2
									s0.9,3.6,4.7,5.2c3.8,1.6,4.7,2.3,6.3,2.3c1.6-0.1,2.3-1,3.2-1c2.1,0,5.5,2.9,3.3,7.2c-1-1.8-1.3-2.9-2.8-3.3
									c-1.3-0.5-3-0.2-3.4-0.1c0.5,1.1,0.9,1.7,1.5,1.6c1-0.2,1.5-0.1,2.2,0.2c0.7,0.3,1.4,2.4-0.3,4.5c-0.9-0.9-1.8-1.7-3.8-1.7
									c-2,0.1-3.7,0.1-5.4,0.8c-0.6-0.8-2.3-1.5-3.6-1c0.2-0.9,0.6-2.6-0.1-3.4c-0.5,0.6-2.8,1.1-3.8,1.1c0.1-1.4-0.3-2.9-0.6-3.3
									c-0.5,0.8-0.9,1-1.7,1.6c-0.6-1.3-1.6-3.6-3-4.4c-1.4-0.8-2.8-1.6-2.3-3.7c0.5-2.1,0.6-3.9,0.1-5.1s-0.5-5.3-0.5-6.2
									C144.5,352,144.2,351.7,144.7,350.6"/>
								<path class="st12" d="M140.8,295c0.3,0,0.7-0.3,0.7-0.7c0-0.3-0.3-0.7-0.7-0.7s-0.7,0.3-0.7,0.7S140.4,295,140.8,295z
									 M139.6,294.2c0.8-0.8,1.8-1,1.8-1c0.2,0.7,0.6,2,0.6,2c-1,0.3-1.7,0.2-2.3-0.5C139.3,293.9,139.6,294.2,139.6,294.2"/>
								<path class="st12" d="M146.6,292.5c0.3,0,0.7-0.3,0.7-0.7c0-0.3-0.3-0.7-0.7-0.7s-0.7,0.3-0.7,0.7
									C145.9,292.2,146.3,292.5,146.6,292.5z M145.4,291.6c0.5-0.3,1.6-0.8,2.1-0.9c0.3,1,0.5,1.8-1,2.6
									C146,292.9,145.4,291.6,145.4,291.6"/>
								<path class="st12" d="M134.7,275.1c-0.1,0.1-0.3,0-0.5-0.1c-0.1-0.1,0-0.3,0.1-0.5s0.3,0,0.5,0.1
									C134.9,274.8,134.8,275,134.7,275.1z M134.8,274.4c-0.1,0-0.1-0.8-0.1-1l-0.7,0.3l-0.7,0.3c0.2,0.1,0.8,0.6,0.7,0.7
									c0,0.1-0.6,0.1-0.9,0.1c0,0.1,0.1,0.3,0.2,0.6l0,0c0.1,0.2,0.2,0.5,0.2,0.6c0.2-0.3,0.6-0.7,0.7-0.7s0.1,0.8,0.1,1l0.7-0.3
									l0.7-0.3c-0.2-0.1-0.8-0.6-0.7-0.7c0-0.1,0.6-0.1,0.9-0.1c0-0.1-0.1-0.3-0.2-0.6l0,0c-0.1-0.2-0.2-0.5-0.2-0.6
									C135.2,274,134.9,274.4,134.8,274.4"/>
								<path class="st12" d="M135.2,277l-0.3-0.8c-0.3,0.3-0.6,0.8-0.5,1.3L135.2,277"/>
								<path class="st12" d="M135.8,276.8l0.9-0.5c-0.3-0.3-0.8-0.6-1.3-0.5L135.8,276.8"/>
								<path class="st12" d="M134.7,278.1c0.3,0.5,1,0.6,1.5,0.3c0.6-0.2,0.8-0.8,0.7-1.4L134.7,278.1"/>
								<path class="st12" d="M136.8,278.9c0.1,0.2,0,0.3-0.1,0.5c-0.2,0.1-0.3,0-0.5-0.1c0-0.1,0-0.2,0-0.2c-0.1,0-0.2-0.1-0.2-0.2
									c-0.1-0.2,0-0.3,0.1-0.5c0.2-0.1,0.3,0,0.5,0.1c0,0.1,0,0.2,0,0.2C136.7,278.8,136.8,278.8,136.8,278.9z M137.1,280
									c-0.2,0.1-0.3,0-0.5-0.1c-0.1-0.2,0-0.3,0.1-0.5c0.2-0.1,0.3,0,0.5,0.1C137.3,279.8,137.2,280,137.1,280z M137.3,280.8
									c-0.2,0.1-0.3,0-0.5-0.1c-0.1-0.2,0-0.3,0.1-0.5c0.2-0.1,0.3,0,0.5,0.1C137.6,280.5,137.5,280.7,137.3,280.8z M137.6,281.5
									c-0.2,0.1-0.3,0-0.5-0.1c-0.1-0.2,0-0.3,0.1-0.5c0.2-0.1,0.3,0,0.5,0.1C138,281.2,137.9,281.4,137.6,281.5z M135.8,277.5
									c-0.5,0.2-0.6,0.7-0.3,1.1l1.4,3c0.2,0.5,0.7,0.6,1.1,0.3c0.5-0.2,0.6-0.7,0.3-1.1l-1.4-3
									C136.7,277.5,136.3,277.3,135.8,277.5"/>
								<path class="st12" d="M140.9,279.6L140.9,279.6L140.9,279.6L140.9,279.6"/>
								<path class="st12" d="M144.7,281.2c0,0.1-0.1,0.2-0.2,0.2c-0.1,0-0.2-0.1-0.2-0.2c0-0.1,0.1-0.2,0.2-0.2
									C144.5,280.9,144.7,281,144.7,281.2z M145,282.9c0,0.1-0.1,0.2-0.2,0.2c-1,0.1-3.8,1.3-5.3,2c-1.5,0.7-4.1,2.2-4.8,2.9
									c-0.1,0.1-0.2,0.1-0.3,0c-0.1-0.1-0.1-0.2,0-0.3c0.9-0.9,3.8-2.4,5.1-3c1.3-0.6,4.3-1.8,5.5-2.1
									C144.8,282.7,144.9,282.8,145,282.9z M145.2,283.7c0,0.2-0.1,0.5-0.3,0.5s-0.5,0-0.6-0.2c0-0.2,0.1-0.5,0.3-0.5
									S145.1,283.5,145.2,283.7z M141.9,284.8c-0.1-0.2,0.1-0.5,0.3-0.6c0.3-0.1,0.6-0.1,0.7,0.1s-0.1,0.5-0.3,0.6
									C142.2,285,142,285,141.9,284.8z M139.4,286.2l-0.2-0.6l1-0.6l0.2,0.6L139.4,286.2z M136.6,287.4c-0.1-0.2,0.1-0.5,0.3-0.6
									c0.3-0.1,0.6-0.1,0.7,0.1s-0.1,0.5-0.3,0.6C137,287.5,136.6,287.5,136.6,287.4z M134.7,288.8c-0.1-0.1,0-0.5,0.1-0.6
									c0.2-0.1,0.5-0.1,0.6,0c0.1,0.1,0,0.5-0.1,0.6C135.1,288.9,134.9,288.9,134.7,288.8z M133.4,286.8c-0.1,0.1-0.2,0-0.3-0.1
									c-0.1-0.1-0.1-0.2,0-0.3s0.2,0,0.3,0.1C133.5,286.6,133.5,286.8,133.4,286.8z M138.2,283.1c-0.1-0.1,0-0.3,0.1-0.3
									c0.1-0.1,0.3,0,0.3,0.1c0.1,0.1,0,0.3-0.1,0.3C138.4,283.4,138.2,283.4,138.2,283.1z M145.4,285.9c-0.2,0.1,0-0.2-0.5-0.2
									c-0.5,0-3,1-4.4,1.7l0,0c-1.4,0.6-3.8,2-4.1,2.3c-0.2,0.3,0.1,0.3-0.1,0.5c-0.5,0.3-1.6-0.3-0.8-1.3c1-1,4-2.4,4.5-2.6l0,0
									c0.5-0.2,3.4-1.6,4.8-1.8C146,284.4,145.8,285.6,145.4,285.9z M144.7,279.4c-0.2,0-1.3,0.2-1.3,0.2s0.9,0.9,0.8,1.1
									c-0.1,0.2-1-0.5-1-0.5c0.1,0.5,0.2,1.8,0.2,1.8s0.7-0.8,0.9-0.7c0.2,0.1-0.1,1-0.9,1.3c-0.9,0.2-0.7,0.1-0.7,0.1
									c0.1-0.1,0.1-0.1,0-0.2c-0.1-0.1-0.2,0-0.3,0s-0.2,0-0.2-0.1c0-0.1,0.1-0.1,0.1-0.3c0-0.1-0.1-0.1-0.1-0.2
									c0-0.1,0-0.3,0.2-0.3s0.3,0.6,0.7,0.6c-0.1-0.1-0.1-0.2-0.1-0.5c0.1-0.6,0-0.8-0.2-0.9c-0.2-0.1-0.6-0.1-0.9,0.7
									c0.2-1.3-0.5-1.7-0.8-2c-0.2,0.3-0.6,1.1,0.2,2.1c-0.7-0.6-0.9-0.3-1.1-0.1c-0.1,0.2-0.1,0.5,0.2,0.9
									c0.2,0.2,0.2,0.3,0.1,0.5c0.3-0.1,0.1-0.7,0.3-0.8c0.1-0.1,0.2,0.1,0.3,0.2s0,0.2,0,0.3c0.1,0.1,0.2,0,0.2,0.2
									c0,0.1,0,0.2-0.2,0.2c-0.1,0-0.3,0-0.3,0.1c0,0.1,0.1,0.2,0.2,0.2c-1.1,1.4-2.2,0.1-2.2-0.1c0.1-0.2,0.8-0.2,1.2-0.1
									c0,0-0.5-1.3-0.8-1.7c-0.2,0.5-0.6,1.1-0.8,1c-0.1-0.1-0.1-0.8,0.1-1.4c-0.6,0-0.8,0.2-1,0.2l0,0c-0.2,0.1-0.5,0.1-0.8,0.6
									c0.6,0.2,1.1,0.6,1.1,0.8c-0.1,0.2-0.8,0.1-1.3,0c0.2,0.5,0.9,1.7,0.9,1.7c0.1-0.2,0.6-0.9,0.8-0.8c0.2,0.1,0.6,1.7-1.3,1.7
									c0-0.1,0-0.2-0.1-0.3c-0.1-0.1-0.2,0-0.3,0.1c-0.1,0.1-0.2,0.1-0.3,0c-0.1-0.1,0-0.2,0-0.3c0-0.1-0.1,0-0.2-0.2
									c-0.1-0.1-0.1-0.3,0.1-0.5c0.2-0.1,0.6,0.5,0.8,0.2c-0.1-0.1-0.2-0.1-0.2-0.5c-0.1-0.6-0.2-0.8-0.6-0.8
									c-0.2,0-0.6,0.1-0.6,0.9c-0.2-1.3-1-1.4-1.5-1.5c0,0.5-0.1,1.3,1,1.8c-0.8-0.2-1,0-1.2,0.2c-0.1,0.2,0.1,0.6,0.6,0.8
									c0.2,0.1,0.2,0.2,0.3,0.3c0.2-0.2-0.1-0.7,0-0.8c0.1-0.1,0.2,0,0.5,0.1c0.1,0.1,0,0.2,0.1,0.2c0.1,0.1,0.2,0,0.3,0.1
									c0.1,0.1,0.1,0.2-0.1,0.3c-0.1,0.1-0.2,0.1-0.2,0.2c0,0.1,0.1,0.1,0.2,0.1c0,0,0.2-0.1-0.5,0.5c-0.7,0.5-1.6,0.1-1.6-0.1
									c0-0.3,1.2-0.3,1.2-0.3s-0.9-0.9-1.3-1.4c0,0,0,1.1-0.3,1.1s-0.3-1.4-0.3-1.4c-0.1,0-0.9,0.7-1,0.9c0.2,0.2,0.9,0.9,1.1,1.1
									c0.2,0.2,1,0.7,1,0.9c0,0.2,0.1,0.5,0.3,0.5c0,0.2-0.2,0.7,0.5,0.9c-0.2,0.9,0.6,1.5,1.5,1.3c0.1-0.1,0.3-0.3,0.3-0.3
									s-0.1-0.2-0.1-0.3c0.2-0.5,2.5-1.6,3.9-2.3l0,0c1.4-0.6,3.8-1.7,4.3-1.6c0.1,0,0.2,0.2,0.2,0.2s0.2,0,0.5-0.1
									c0.7-0.6,0.8-1.6-0.1-2c0.2-0.8-0.2-0.8-0.5-1c0.2-0.2,0.1-0.5-0.1-0.6c-0.2-0.1,0-1-0.1-1.4
									C144.8,280.7,144.7,279.9,144.7,279.4"/>
								<path class="st12" d="M134.1,282.8L134.1,282.8L134.1,282.8"/>
								<path class="st12" d="M143.3,285.5c-0.1,0.1-0.2,0.3-0.3,0.3s-0.2,0-0.5,0s-0.3,0-0.5,0l0,0c0.1-0.1,0.2-0.3,0.3-0.3
									s0.2,0,0.5,0C142.9,285.6,143.2,285.6,143.3,285.5L143.3,285.5"/>
								<path class="st12" d="M138.6,287.7c-0.1,0.1-0.2,0.3-0.3,0.3s-0.2,0-0.5,0s-0.3,0-0.5,0l0,0c0.1-0.1,0.2-0.3,0.3-0.3
									s0.2,0,0.5,0C138.3,287.8,138.6,287.8,138.6,287.7L138.6,287.7"/>
								<path class="st12" d="M145.4,285c-0.1,0.1-0.2,0.3-0.3,0.3c-0.1,0-0.2,0-0.5,0s-0.3,0-0.5,0l0,0c0.1-0.1,0.2-0.3,0.3-0.3
									s0.2,0,0.5,0C145.1,285,145.2,285,145.4,285L145.4,285"/>
								<path class="st12" d="M136.7,289.1c-0.1,0.1-0.2,0.3-0.3,0.3c-0.1,0-0.2,0-0.5,0s-0.3,0-0.5,0l0,0c0.1-0.1,0.2-0.3,0.3-0.3
									s0.2,0,0.5,0C136.5,289.1,136.6,289.1,136.7,289.1L136.7,289.1"/>
								<path class="st12" d="M140.9,286.6c-0.1,0.1-0.2,0.3-0.3,0.3s-0.2,0-0.5,0s-0.3,0-0.5,0l0,0c0.1-0.1,0.2-0.3,0.3-0.3
									s0.2,0,0.5,0C140.6,286.7,140.8,286.7,140.9,286.6L140.9,286.6"/>
								<path class="st7" d="M175.5,321.9c0,0,0.2-0.3,0.6-1.1c0.3,1,0.1,1.5-0.3,2.2c1.3,0.7,2.4,0.3,3.2,0.3
									c-0.6,0.9-1.5,1.4-1.8,1.6c2.3,2.2,4.8,0.5,4.8,0.5s-0.6,1.2-0.8,1.8c1.1,0.3,2.6-0.2,3.3-0.9c0.8-0.7,0.7-2.8,0.6-3.3
									c0-0.6,0.5-0.9,0.5-1.7s-1.1-1.7-2-2.4c-0.5-0.5-1.5-1.5-2.5-2.9c-0.6-0.9-1.3-1.7-2-2.4c-0.1,0.1-0.6,0-0.7,0
									c-1,0.2-3.9,1-4.7,2.3c-0.5,0.7-1.7,2-2.2,2.6C172.4,319.3,175.5,321.9,175.5,321.9"/>
							</g>
						</g>
						<g id="Lev_-_Cary">
							<path class="st15" d="M134.1,282.8L134.1,282.8L134.1,282.8z"/>
							<path class="st16" d="M135.9,279.2c-2.1,0.8-2.4,0-4,0.8c-1.6,0.8-2.3,3.7,0.5,5.3"/>
							<path class="st17" d="M148.3,303.8c0.8,1.4,1.5,2.3,2,2.1c0.7-0.2-0.1-2-0.7-2.9"/>
							<path class="st16" d="M137,278.8c2-1,1.5-1.8,3.2-2.6c1.6-0.8,4.4,0.5,3.8,3.7"/>
							<path class="st18" d="M137.9,280.2c1-0.7,1.1-1.4,1.8-1.7c0.8-0.3,1.3,0.1,1.3,0.1c0.8-0.6,1.6-1.1,2.9,0.9"/>
							<path class="st19" d="M131.3,386.4c0,0,0.6,2.3,1.8,2.8c1,0.3,2-0.2,2-0.2s1.6,0.8,0.7-0.1s-1-0.9-2.5-1.6
								C131.7,386.7,131.4,386.7,131.3,386.4z"/>
							<path class="st19" d="M137.1,386.6c-0.3,0.8-0.6,1.4-0.2,2c0.3,0.6,1.6,0.6,1.6,0.6s-0.8-0.2-1.1-1.3
								C137,386.9,137.1,386.6,137.1,386.6z"/>
							<path class="st18" d="M136.7,280.8c-1.3,0.5-2,0.1-2.6,0.5c-0.8,0.3-0.8,1-0.8,1c-0.9,0.2-1.8,0.6-1,2.9"/>
							<path class="st19" d="M131.4,390.6c0-0.6,0.3-1.3,0.9-1.5c0,0.6,0.1,1.5,0.5,1.7C133.2,391,131.4,390.6,131.4,390.6z"/>
							<path class="st20" d="M134.7,275.1c-0.1,0.1-0.3,0-0.5-0.1c-0.1-0.1,0-0.3,0.1-0.5s0.3,0,0.5,0.1
								C134.9,274.8,134.8,275,134.7,275.1z M134.8,274.4c0,0-0.1-0.8-0.1-1l-0.7,0.3l-0.7,0.3c0.2,0.1,0.8,0.6,0.7,0.7
								c0,0.1-0.6,0.1-0.9,0.1c0,0,0.1,0.3,0.2,0.6l0,0c0.1,0.2,0.2,0.6,0.2,0.6c0.2-0.3,0.7-0.7,0.7-0.7s0.1,0.8,0.1,1l0.7-0.3
								l0.7-0.3c-0.2-0.1-0.8-0.6-0.7-0.7c0-0.1,0.6-0.1,0.9-0.1c0,0-0.1-0.3-0.2-0.6l0,0c-0.1-0.2-0.2-0.6-0.2-0.6
								C135.2,274,134.8,274.4,134.8,274.4z"/>
							<path class="st20" d="M135.2,277l-0.3-0.8c-0.3,0.3-0.6,0.8-0.5,1.3L135.2,277z"/>
							<path class="st20" d="M135.8,276.8l0.9-0.5c-0.3-0.3-0.8-0.6-1.3-0.5L135.8,276.8z"/>
							<path class="st20" d="M134.7,278.1c0.3,0.5,1,0.6,1.5,0.3c0.6-0.2,0.8-0.8,0.7-1.4L134.7,278.1z"/>
							<path class="st20" d="M136.8,278.9c0.1,0.2,0,0.3-0.1,0.5c-0.2,0.1-0.3,0-0.5-0.1c0-0.1,0-0.2,0-0.2s-0.2-0.1-0.2-0.2
								c-0.1-0.2,0-0.3,0.1-0.5c0.2-0.1,0.3,0,0.5,0.1c0,0.1,0,0.2,0,0.2S136.8,278.8,136.8,278.9z M137.1,280
								c-0.2,0.1-0.3,0-0.5-0.1c-0.1-0.2,0-0.3,0.1-0.5c0.2-0.1,0.3,0,0.5,0.1C137.3,279.8,137.2,280,137.1,280z M137.3,280.8
								c-0.2,0.1-0.3,0-0.5-0.1c-0.1-0.2,0-0.3,0.1-0.5c0.2-0.1,0.3,0,0.5,0.1C137.6,280.5,137.5,280.7,137.3,280.8z M137.6,281.5
								c-0.2,0.1-0.3,0-0.5-0.1c-0.1-0.2,0-0.3,0.1-0.5c0.2-0.1,0.3,0,0.5,0.1C138,281.2,137.9,281.4,137.6,281.5z M135.8,277.5
								c-0.5,0.2-0.6,0.7-0.3,1.1l1.4,3c0.2,0.5,0.7,0.6,1.1,0.3c0.5-0.2,0.6-0.7,0.3-1.1l-1.4-3
								C136.7,277.5,136.3,277.3,135.8,277.5z"/>
							<path class="st21" d="M136.8,276.8c0.1,0,0.1-0.1,0.1-0.2s-0.1-0.1-0.2-0.1 M134.4,277.5c-0.1,0-0.1,0.1-0.1,0.2
								s0.1,0.1,0.2,0.1"/>
							<path class="st15" d="M140.9,279.6L140.9,279.6L140.9,279.6L140.9,279.6z"/>
							<path class="st15" d="M144.7,281.2l-0.2,0.2l-0.2-0.2l0.2-0.2L144.7,281.2z M145,282.9l-0.2,0.2c-1,0.1-3.8,1.3-5.3,2
								c-1.5,0.7-4.1,2.2-4.8,2.9c-0.1,0.1-0.2,0.1-0.3,0c-0.1-0.1-0.1-0.2,0-0.3c0.9-0.9,3.8-2.4,5.1-3c1.3-0.6,4.3-1.8,5.5-2.1
								L145,282.9z M145.2,283.7c0,0.2-0.1,0.5-0.3,0.5c-0.2,0.1-0.5,0-0.6-0.2c0-0.2,0.1-0.5,0.3-0.5
								C144.9,283.4,145.1,283.5,145.2,283.7z M141.9,284.8c-0.1-0.2,0.1-0.5,0.3-0.6c0.3-0.1,0.6-0.1,0.7,0.1s-0.1,0.5-0.3,0.6
								C142.2,285,142,285,141.9,284.8z M139.4,286.2l-0.2-0.6l1-0.6l0.2,0.6L139.4,286.2z M136.6,287.4c-0.1-0.2,0.1-0.5,0.3-0.6
								c0.3-0.1,0.6-0.1,0.7,0.1s-0.1,0.5-0.3,0.6C137,287.5,136.6,287.5,136.6,287.4z M134.7,288.8c-0.1-0.1,0-0.5,0.1-0.6
								c0.2-0.1,0.5-0.1,0.6,0c0.1,0.1,0,0.5-0.1,0.6C135.1,288.9,134.9,288.9,134.7,288.8z M133.4,286.8c-0.1,0.1-0.2,0-0.3-0.1
								c-0.1-0.1-0.1-0.2,0-0.3s0.2,0,0.3,0.1C133.5,286.6,133.5,286.8,133.4,286.8z M138.2,283.1c-0.1-0.1,0-0.3,0.1-0.3
								c0.1-0.1,0.3,0,0.3,0.1c0.1,0.1,0,0.3-0.1,0.3C138.4,283.4,138.2,283.4,138.2,283.1z M145.4,285.9c-0.2,0.1,0-0.2-0.5-0.2
								c-0.5,0-3,1-4.4,1.7l0,0c-1.4,0.6-3.8,2-4.1,2.3c-0.2,0.3,0.1,0.3-0.1,0.5c-0.5,0.3-1.6-0.3-0.8-1.3c1-1,4-2.4,4.5-2.6l0,0
								c0.5-0.2,3.4-1.6,4.8-1.8C146,284.4,145.8,285.6,145.4,285.9z M144.7,279.4c-0.2,0-1.3,0.2-1.3,0.2s0.9,0.9,0.8,1.1
								c-0.1,0.2-1-0.5-1-0.5c0.1,0.5,0.2,1.8,0.2,1.8s0.7-0.8,0.9-0.7c0.2,0.1-0.1,1-0.9,1.3c-0.9,0.2-0.7,0.1-0.7,0.1
								c0.1-0.1,0.1-0.1,0-0.2c-0.1-0.1-0.2,0-0.3,0s-0.2,0-0.2-0.1c0-0.1,0.1-0.3,0.1-0.3s-0.1-0.1-0.1-0.2c0-0.1,0-0.3,0.2-0.3
								s0.3,0.6,0.7,0.6c-0.1-0.1-0.1-0.2-0.1-0.5c0.1-0.6,0-0.8-0.2-0.9c-0.2-0.1-0.6-0.1-0.9,0.7c0.2-1.3-0.5-1.7-0.8-2
								c-0.2,0.3-0.6,1.1,0.2,2.1c-0.7-0.6-0.9-0.3-1.1-0.1c-0.1,0.2-0.1,0.5,0.2,0.9c0.2,0.2,0.1,0.3,0.1,0.5
								c0.3-0.1,0.1-0.7,0.3-0.8c0.1-0.1,0.2,0.1,0.3,0.2s0,0.2,0,0.3c0.1,0.1,0.2,0,0.2,0.2c0,0,0,0.2-0.2,0.2
								c-0.1,0-0.3,0.1-0.3,0.1s0.1,0.2,0.2,0.2c-1.1,1.4-2.2,0.1-2.2-0.1c0.1-0.2,0.8-0.2,1.2-0.1c0,0-0.5-1.3-0.8-1.7
								c-0.2,0.5-0.6,1.1-0.8,1c-0.1-0.1-0.1-0.8,0.1-1.4c-0.6,0-0.8,0.2-1,0.2l0,0c-0.2,0.1-0.5,0.1-0.8,0.6
								c0.6,0.2,1.1,0.6,1.1,0.8c-0.1,0.2-0.8,0.1-1.3,0c0.2,0.5,0.9,1.7,0.9,1.7c0.1-0.2,0.6-0.9,0.8-0.8c0.2,0.1,0.6,1.7-1.3,1.7
								c0,0,0-0.2-0.1-0.3c-0.1-0.1-0.2,0-0.3,0.1c-0.1,0.1-0.2,0.1-0.3,0c-0.1-0.1,0-0.2,0-0.3c0-0.1-0.1,0-0.2-0.2
								c-0.1-0.1-0.1-0.3,0.1-0.5c0.2-0.1,0.6,0.5,0.8,0.2c-0.1-0.1-0.2-0.1-0.2-0.5c-0.1-0.6-0.2-0.8-0.6-0.8
								c-0.2,0-0.6,0.1-0.6,0.9c-0.2-1.3-1-1.4-1.5-1.5c0,0.5-0.1,1.3,1,1.8c-0.8-0.2-1,0-1.2,0.2c-0.1,0.2,0.1,0.6,0.6,0.8
								c0.2,0.1,0.3,0.2,0.3,0.3c0.2-0.2-0.1-0.7,0-0.8c0.1-0.1,0.2,0,0.5,0.1c0.1,0.1,0,0.2,0.1,0.2c0.1,0.1,0.2,0,0.3,0.1
								c0.1,0.1,0.1,0.2-0.1,0.3c-0.1,0.1-0.2,0.1-0.2,0.2c0,0.1,0.2,0.1,0.2,0.1s0.2-0.1-0.5,0.5c-0.7,0.5-1.6,0.1-1.6-0.1
								c0-0.3,1.2-0.3,1.2-0.3s-0.9-0.9-1.3-1.4c0,0,0,1.1-0.3,1.1s-0.3-1.4-0.3-1.4s-0.9,0.7-1,0.9c0.2,0.2,0.9,0.9,1.1,1.1
								c0.2,0.2,1,0.7,1,0.9c0,0.2,0.1,0.5,0.3,0.5c0,0.2-0.2,0.7,0.5,0.9c-0.2,0.9,0.6,1.5,1.5,1.3c0.1-0.1,0.3-0.3,0.3-0.3
								s-0.1-0.2-0.1-0.3c0.2-0.5,2.5-1.6,3.9-2.3l0,0c1.4-0.6,3.8-1.7,4.3-1.6l0.2,0.2c0,0,0.2,0,0.5-0.1c0.7-0.6,0.8-1.6-0.1-2
								c0.2-0.8-0.2-0.8-0.5-1c0.2-0.2,0.1-0.5-0.1-0.6c-0.2-0.1-0.1-1-0.1-1.4C144.8,280.7,144.7,279.9,144.7,279.4z"/>
							<path class="st20" d="M143.3,285.5c-0.1,0.1-0.2,0.3-0.3,0.3s-0.2,0-0.5,0s-0.3,0-0.5,0l0,0c0.1-0.1,0.2-0.3,0.3-0.3
								s0.2,0,0.5,0C142.9,285.6,143.2,285.6,143.3,285.5L143.3,285.5z"/>
							<path class="st20" d="M138.6,287.7c-0.1,0.1-0.2,0.3-0.3,0.3s-0.2,0-0.5,0s-0.3,0-0.5,0l0,0c0.1-0.1,0.2-0.3,0.3-0.3
								s0.2,0,0.5,0C138.3,287.8,138.6,287.8,138.6,287.7L138.6,287.7z"/>
							<path class="st20" d="M145.4,285c-0.1,0.1-0.2,0.3-0.3,0.3c-0.1,0-0.2,0-0.5,0s-0.3,0-0.5,0l0,0c0.1-0.1,0.2-0.3,0.3-0.3
								s0.2,0,0.5,0C145.1,285,145.2,285,145.4,285L145.4,285z"/>
							<path class="st20" d="M136.7,289.1c-0.1,0.1-0.2,0.3-0.3,0.3c-0.1,0-0.2,0-0.5,0s-0.3,0-0.5,0l0,0c0.1-0.1,0.2-0.3,0.3-0.3
								s0.2,0,0.5,0C136.5,289.1,136.6,289.1,136.7,289.1L136.7,289.1z"/>
							<path class="st20" d="M140.9,286.6c-0.1,0.1-0.2,0.3-0.3,0.3s-0.2,0-0.5,0s-0.3,0-0.5,0l0,0c0.1-0.1,0.2-0.3,0.3-0.3
								s0.2,0,0.5,0C140.6,286.7,140.8,286.7,140.9,286.6L140.9,286.6z"/>
						</g>
						<g id="BOdy_na_koruně">
							<path class="st22" d="M137.6,278.1c0.2-0.1,0.3-0.3,0.2-0.6c-0.1-0.2-0.3-0.3-0.6-0.2c-0.2,0.1-0.3,0.3-0.2,0.6
								C137.2,278.1,137.4,278.2,137.6,278.1"/>
							<path class="st22" d="M138.4,277.1c0.2-0.1,0.3-0.3,0.2-0.6c-0.1-0.2-0.3-0.3-0.6-0.2c-0.2,0.1-0.3,0.3-0.2,0.6
								C138,277.1,138.2,277.3,138.4,277.1"/>
							<path class="st22" d="M139.4,276.2c0.2-0.1,0.3-0.3,0.2-0.6c-0.1-0.2-0.3-0.3-0.6-0.2s-0.3,0.3-0.2,0.6
								C138.9,276.2,139.1,276.3,139.4,276.2"/>
							<path class="st22" d="M140.5,275.6c0.2-0.1,0.3-0.3,0.2-0.6c-0.1-0.2-0.3-0.3-0.6-0.2c-0.2,0.1-0.3,0.3-0.2,0.6
								C140.1,275.6,140.3,275.8,140.5,275.6"/>
							<path class="st22" d="M141.9,275.5c0.2-0.1,0.3-0.3,0.2-0.6c-0.1-0.2-0.3-0.3-0.6-0.2c-0.2,0.1-0.3,0.3-0.2,0.6
								C141.4,275.5,141.7,275.6,141.9,275.5"/>
							<path class="st22" d="M143.1,276c0.2-0.1,0.3-0.3,0.2-0.6c-0.1-0.2-0.3-0.3-0.6-0.2c-0.2,0.1-0.3,0.3-0.2,0.6
								C142.6,276,142.8,276.1,143.1,276"/>
							<path class="st22" d="M144.1,276.8c0.2-0.1,0.3-0.3,0.2-0.6c-0.1-0.2-0.3-0.3-0.6-0.2c-0.2,0.1-0.3,0.3-0.2,0.6
								C143.6,276.8,143.9,276.9,144.1,276.8"/>
							<path class="st22" d="M144.7,278.1c0.2-0.1,0.3-0.3,0.2-0.6c-0.1-0.2-0.3-0.3-0.6-0.2c-0.2,0.1-0.3,0.3-0.2,0.6
								C144.2,278.1,144.4,278.2,144.7,278.1"/>
							<path class="st22" d="M144.9,279.3c0.2-0.1,0.3-0.3,0.2-0.6c-0.1-0.2-0.3-0.3-0.6-0.2c-0.2,0.1-0.3,0.3-0.2,0.6
								C144.4,279.3,144.7,279.4,144.9,279.3"/>
							<path class="st22" d="M135.1,279.3c-0.2,0.1-0.5,0-0.6-0.2c-0.1-0.2,0-0.5,0.2-0.6c0.2-0.1,0.5,0,0.6,0.2
								C135.3,279,135.2,279.2,135.1,279.3"/>
							<path class="st22" d="M133.9,279.4c-0.2,0.1-0.5,0-0.6-0.2c-0.1-0.2,0-0.5,0.2-0.6s0.5,0,0.6,0.2
								C134.1,279,134.1,279.3,133.9,279.4"/>
							<path class="st22" d="M132.6,279.6c-0.2,0.1-0.5,0-0.6-0.2c-0.1-0.2,0-0.5,0.2-0.6s0.5,0,0.6,0.2
								C132.8,279.2,132.8,279.4,132.6,279.6"/>
							<path class="st23" d="M131.3,280c-0.2,0.1-0.5,0-0.6-0.2c-0.1-0.2,0-0.5,0.2-0.6c0.2-0.1,0.5,0,0.6,0.2
								C131.7,279.7,131.6,280,131.3,280"/>
							<path class="st22" d="M130.4,281c-0.2,0.1-0.5,0-0.6-0.2c-0.1-0.2,0-0.5,0.2-0.6c0.2-0.1,0.5,0,0.6,0.2
								C130.7,280.7,130.6,280.9,130.4,281"/>
							<path class="st22" d="M130.1,282.2c-0.2,0.1-0.5,0-0.6-0.2c-0.1-0.2,0-0.5,0.2-0.6c0.2-0.1,0.5,0,0.6,0.2
								C130.3,281.9,130.2,282.1,130.1,282.2"/>
							<path class="st22" d="M130.1,283.5c-0.2,0.1-0.5,0-0.6-0.2c-0.1-0.2,0-0.5,0.2-0.6c0.2-0.1,0.5,0,0.6,0.2
								C130.4,283.1,130.3,283.5,130.1,283.5"/>
							<path class="st22" d="M130.6,284.7c-0.2,0.1-0.5,0-0.6-0.2s0-0.5,0.2-0.6c0.2-0.1,0.5,0,0.6,0.2
								C130.9,284.4,130.9,284.6,130.6,284.7"/>
							<path class="st22" d="M131.4,285.8c-0.2,0.1-0.5,0-0.6-0.2c-0.1-0.2,0-0.5,0.2-0.6c0.2-0.1,0.5,0,0.6,0.2
								C131.8,285.4,131.7,285.6,131.4,285.8"/>
						</g>
					</g>
				</g>
			</g>
		</g>
	</g>
	<g id="Trojúhelník_-_linka">
		<polygon class="st3" points="20,451.2 250.6,48.8 480,451.2 		"/>
	</g>
</g>
</svg>
