<?xml version="1.0" encoding="UTF-8"?>
<svg xmlns="http://www.w3.org/2000/svg" viewBox="0 0 496 88.2">
  <defs>
    <style>
      .c {
        fill: #7b1812;
        stroke: #7b1714;
        stroke-width: 8.69px;
      }

      .d {
        fill: #010101;
      }
    </style>
  </defs>
  <g id="a" data-name="Vrstva 1">
    <g>
      <path class="d" d="M0,.89H11.29V87.31H0V.89ZM7.13,76.61h14.2c2.53,0,4.51-.63,5.91-1.9,1.4-1.27,2.11-3.08,2.11-5.41v-11.29c0-2.17-.36-4.04-1.07-5.59-.71-1.54-1.72-2.73-3-3.53-1.29-.82-2.8-1.22-4.54-1.22H7.13v-10.69h13.61c2.38,0,4.22-.82,5.53-2.43,1.3-1.62,1.96-3.92,1.96-6.89v-8.79c0-2.29-.65-4.08-1.96-5.35-1.3-1.27-3.11-1.9-5.41-1.9H7.13V.91h13.55c3.97,0,7.36,.67,10.19,2.02,2.84,1.35,4.98,3.31,6.44,5.91,1.47,2.6,2.2,5.72,2.2,9.36v9.15c0,2.7-.43,5.1-1.3,7.19-.87,2.1-2.13,3.83-3.77,5.17-1.64,1.35-3.62,2.26-5.91,2.74,2.53,.4,4.72,1.29,6.54,2.67,1.83,1.39,3.21,3.18,4.16,5.38,.96,2.2,1.42,4.76,1.42,7.69v11.41c0,3.76-.72,6.97-2.14,9.6-1.42,2.63-3.52,4.65-6.27,6.03-2.75,1.39-6.08,2.08-9.95,2.08H7.13v-10.72Z"/>
      <path class="c" d="M83.29,50.99v10.69h-30.43v-10.69h30.43Z"/>
      <path class="d" d="M108.17,87.31h-11.29V.89h11.29V87.31Z"/>
      <path class="c" d="M152.17,50.99v10.69h-30.43v-10.69h30.43Z"/>
      <path class="d" d="M174.84,85.86c-3.13-1.56-5.51-3.86-7.13-6.89-1.63-3.03-2.43-6.73-2.43-11.09v-4.28h11.29v3.86c0,3.13,.84,5.54,2.52,7.22,1.68,1.68,4.09,2.52,7.22,2.52s5.39-.84,7.01-2.5c1.62-1.66,2.43-4.08,2.43-7.25v-7.55c0-2.1-.51-3.88-1.54-5.35s-2.31-2.66-3.86-3.6c-1.54-.93-3.68-2.01-6.42-3.24-.08-.04-.16-.07-.24-.09s-.16-.04-.24-.09l-.84-.36c-3.64-1.66-6.63-3.29-8.94-4.87-2.31-1.59-4.29-3.78-5.91-6.6-1.63-2.81-2.43-6.38-2.43-10.69v-4.99c0-4.28,.8-7.91,2.4-10.91,1.61-2.99,3.97-5.26,7.11-6.8,3.13-1.54,6.93-2.31,11.41-2.31s8.05,.78,11.09,2.35c3.03,1.56,5.33,3.86,6.89,6.89,1.56,3.03,2.35,6.71,2.35,11.02v4.52h-11.29v-4.04c0-3.17-.77-5.59-2.31-7.25s-3.78-2.5-6.72-2.5c-3.13,0-5.52,.79-7.16,2.38s-2.47,3.85-2.47,6.77v5.41c0,2.18,.51,4.01,1.54,5.5,1.03,1.49,2.31,2.68,3.86,3.6s3.66,1.96,6.36,3.15c.27,.12,.53,.24,.77,.36s.5,.24,.77,.36c.2,.08,.4,.17,.62,.27,.22,.1,.42,.18,.62,.27,3.45,1.54,6.22,3.02,8.32,4.42,2.1,1.4,3.88,3.43,5.35,6.1,1.47,2.65,2.2,6.12,2.2,10.4v7.9c0,4.36-.8,8.05-2.4,11.09-1.6,3.03-3.96,5.33-7.04,6.89-3.09,1.56-6.86,2.35-11.29,2.35s-8.34-.78-11.47-2.35h.02Z"/>
      <path class="c" d="M250.59,50.99v10.69h-30.43v-10.69h30.43Z"/>
      <path class="d" d="M258.35,.89h41.96V11.59h-41.96V.89h0Zm15.33,7.08h11.29V87.31h-11.29V7.97Z"/>
      <path class="c" d="M338.49,50.99v10.69h-30.43v-10.69h30.43Z"/>
      <path class="d" d="M352.2,.84h11.29V87.31h-11.29V.84Zm5.29,39.22h15.93c2.02,0,3.75-.38,5.21-1.13,1.45-.75,2.54-1.85,3.3-3.27,.75-1.42,1.13-3.15,1.13-5.17v-8.79c0-2.14-.38-3.97-1.13-5.5-.75-1.52-1.86-2.68-3.3-3.48-1.45-.79-3.18-1.18-5.21-1.18h-15.93V.84h14.92c4.6,0,8.54,.76,11.82,2.29,3.29,1.52,5.79,3.76,7.52,6.72,1.73,2.96,2.59,6.49,2.59,10.61v10.11c0,4.24-.86,7.88-2.59,10.91-1.73,3.03-4.23,5.34-7.52,6.92-3.29,1.59-7.23,2.38-11.82,2.38h-14.92v-10.72Zm14.86,8.02l10.64-2.74,13.79,41.96h-12.37l-12.06-39.22Z"/>
      <path class="c" d="M439.41,50.99v10.69h-30.43v-10.69h30.43Z"/>
      <path class="d" d="M462.97,85.64c-3.21-1.71-5.66-4.18-7.34-7.43-1.68-3.25-2.52-7.15-2.52-11.7V21.69c0-4.6,.84-8.52,2.52-11.77,1.68-3.25,4.13-5.72,7.34-7.4C466.18,.84,470.05,0,474.56,0s8.38,.85,11.59,2.52c3.21,1.68,5.65,4.15,7.34,7.4,1.68,3.25,2.52,7.17,2.52,11.77v44.81c0,4.55-.85,8.46-2.52,11.7-1.68,3.25-4.13,5.73-7.34,7.43-3.21,1.71-7.08,2.55-11.59,2.55s-8.38-.85-11.59-2.55Zm17.08-9.66c1.52-.82,2.68-1.99,3.48-3.53,.79-1.54,1.18-3.4,1.18-5.59V21.33c0-2.17-.4-4.04-1.18-5.59-.79-1.54-1.96-2.73-3.48-3.53-1.52-.82-3.36-1.22-5.5-1.22s-3.98,.4-5.5,1.22c-1.52,.82-2.68,1.99-3.48,3.53-.79,1.54-1.18,3.41-1.18,5.59v45.53c0,2.18,.39,4.04,1.18,5.59,.79,1.54,1.95,2.73,3.48,3.53,1.52,.82,3.36,1.22,5.5,1.22s3.97-.4,5.5-1.22Z"/>
    </g>
  </g>
  <g id="b" data-name="Vrstva 3"/>
</svg>