<?xml version="1.0" encoding="UTF-8"?>
<svg id="a" data-name="Vrstva 1" xmlns="http://www.w3.org/2000/svg" viewBox="0 0 498 93.11">
  <defs>
    <style>
      .c {
        fill: #0d4479;
      }
    </style>
  </defs>
  <g id="b" data-name="a">
    <g>
      <path class="c" d="M.01,1.71s9.39-.42,17.22-.42c17.22,0,27.05,8.97,27.05,22.64,0,7.83-3.13,15.95-12.81,20.21,11.68,3.13,17.22,11.39,17.22,21.78,0,16.09-10.39,25.77-28.9,25.77H0V1.71H.01ZM18.95,41.72c10.54,0,17.66-6.4,17.66-17.36,0-9.54-8.4-16.23-19.65-16.23H7.7V41.57s5.56,.14,11.24,.14Zm1.42,42.99c12.81,0,20.65-5.12,20.65-18.36,0-10.82-7.69-18.08-22.78-18.08H7.7v36.3s6.98,.14,12.67,.14h-.01Z"/>
      <path class="c" d="M97.95,1.43h7.69V91.69h-7.69V1.43Z"/>
      <path class="c" d="M177.95,93.11c-7.97,0-15.95-2.28-23.2-6.12l3.27-7.12c6.4,3.56,12.38,6.12,19.93,6.12,10.53,0,17.36-5.98,17.36-15.95,0-8.11-3.85-14.37-13.24-19.65l-10.11-5.7c-11.96-6.69-16.51-13.38-16.51-23.34,0-11.82,9.82-21.35,24.06-21.35,7.12,0,13.24,1.28,20.21,4.56l-3.41,7.12c-5.7-2.99-10.96-4.56-16.94-4.56-9.68,0-16.09,5.7-16.09,13.81,0,6.84,3.27,11.82,13.1,17.36l10.11,5.7c11.96,6.69,16.8,14.52,16.8,25.63,0,14.09-10.39,23.49-25.34,23.49h-.01Z"/>
      <path class="c" d="M265.49,8.55h-27.76V1.43h63.78l-.42,7.12h-27.9V91.69h-7.69V8.55h0Z"/>
      <path class="c" d="M343.12,51.54v40.15h-7.69V1.57s10.82-.28,21.07-.28c19.65,0,30.18,10.11,30.18,26.47,0,11.54-7.69,21.21-19.65,24.48l20.21,36.87-7.12,3.85-21.07-39.43h-1.71c-5.12,0-10.11-.71-14.23-1.99h.01Zm14.52-4.56c12.81,0,21.21-7.83,21.21-18.79,0-12.1-8.25-20.21-22.49-20.21-3.56,0-7.97,.14-13.24,.28V45.13c4.7,1.28,10.11,1.85,14.52,1.85h0Z"/>
      <path class="c" d="M464.97,0C486.9,0,498,12.81,498,46.55s-11.96,46.55-33.88,46.55-33.03-12.81-33.03-46.41S443.05,0,464.97,0Zm-.28,6.69c-16.66,0-25.48,10.39-25.48,39.86s8.55,39.86,25.2,39.86,25.48-10.39,25.48-39.72-8.55-40-25.2-40Z"/>
    </g>
    <circle class="c" cx="67.21" cy="47.05" r="4.85"/>
    <circle class="c" cx="134.12" cy="47.05" r="4.85"/>
    <circle class="c" cx="226.06" cy="47.05" r="4.85"/>
    <circle class="c" cx="315.17" cy="47.05" r="4.85"/>
    <circle class="c" cx="407.3" cy="47.05" r="4.85"/>
  </g>
</svg>